<?xml version="1.0" encoding="UTF-8"?>
<svg version="1.1" viewBox="0 0 2048 529" xmlns="http://www.w3.org/2000/svg">
<path transform="translate(1562,109)" d="m0 0h118l22 22 8 7 50 50 4 3 4-2 53-53 8-7 20-20h118l-2 4-17 17-8 7-63 63-8 7-43 43 2 4 50 50 8 7 64 64 8 7 14 14v1h-120l-61-61-8-7-18-18-7 6-43 43-8 7-30 30h-120l6-7 10-10 8-7 50-50 8-7 50-50 8-7 7-7-6-7-49-49-8-7-63-63-8-7-8-8z" fill="#E3101A"/>
<path transform="translate(1343,109)" d="m0 0h148l16 2 15 5 12 7 13 11 9 12 7 14 4 14 1 8v142l-3 17-6 15-9 13-12 12-13 8-12 5-14 3h-163l-14-3-16-7-12-9-10-10-9-14-5-13-3-16v-143l3-16 5-13 9-14 8-9 12-9 14-7 15-4zm9 52-11 4-9 7-6 8-4 10-1 5v117l4 13 7 10 10 7 7 3 5 1h127l10-3 9-6 7-7 5-10 2-9v-115l-3-12-6-10-8-7-10-5-4-1z" fill="#2C2E84"/>
<path transform="translate(1030,109)" d="m0 0h148l15 2 15 5 11 6 10 8 7 7 10 15 6 16 2 11v149l-3 14-5 12-7 12-10 11-12 9-15 7-11 3-6 1h-163l-17-4-16-8-11-9-10-11-8-14-5-15-1-6v-154l4-15 8-16 7-9 10-10 11-7 13-6 12-3zm8 52-10 4-6 4-8 8-5 11-1 3v124l4 11 6 8 7 6 8 4 7 2h127l10-3 10-6 7-8 4-8 2-7v-121l-4-12-6-8-8-7-9-4-4-1z" fill="#2C2E84"/>
<path transform="translate(790,109)" d="m0 0h10l20 2 21 5 15 6 17 9 12 9 14 12 11 12 9 13 10 19 7 21 3 16 1 10v154h-58l-1-151-3-16-6-16-7-12-9-11-13-10-17-9-13-4-12-2h-12l-16 3-15 6-16 10-10 9-9 12-7 14-4 13-2 11-1 17v135l-1 1h-58v-277l1-1h56l1 1v18l15-10 16-8 17-6 21-4z" fill="#2C2E84"/>
<path transform="translate(337,109)" d="m0 0h46l11 1 1 143 2 17 4 15 8 16 10 13 12 10 16 9 13 5 18 3 15-1 15-4 19-9 13-10 7-7 7-10 7-14 5-19 1-9 1-148 3-1h50l5 1v277h-57v-18l-18 11-16 8-20 6-19 3h-30l-19-3-17-5-21-10-12-8-10-8-13-12-11-13-9-14-8-17-6-20-3-19-1-15v-143z" fill="#2C2E84"/>
<path transform="translate(249,109)" d="m0 0h50l5 1v166l-2 24-4 19-6 17-8 14-8 10-10 10-14 9-14 7-20 6-16 3-18 2h-124v-55l118-1 21-3 16-5 12-7 8-8 6-10 4-12 2-12 1-174z" fill="#2C2E84"/>
</svg>
