<svg xmlns="http://www.w3.org/2000/svg" viewBox="0 0 512 512" id="delivery-waiting">
    <path
        fill="#2c2e83" d="M252.15,404.93A141.07,141.07,0,0,1,488.94,301.32q1-72.31-1.2-144.62c-.8-33.12-19.51-66.37-50.83-82.8-16.1-8.51-32.78-16.7-49.66-24.46C320.6,71,242.52,99.39,163.78,134.65a44.41,44.41,0,0,0-26.42,38.68c-1.23,38-1.61,77.22-1.11,116a5.33,5.33,0,0,1-9.62,3.33q-12.48-16-24.42-31.64a4,4,0,0,0-5.3-1.09q-9.27,5.52-18.22,10.89c-3.34,2-7.45-.67-7.47-4.78-.2-38.63.77-77.36,2.83-114.9.87-15.83,10.81-30.74,25.5-38,75.52-37.3,156.09-67.77,224.84-90.32-16.05-6.26-31.91-12-47.44-17.44a99.52,99.52,0,0,0-64.63,0C160.51,23.26,103.91,46.6,52.36,73.9,21,90.33,2.33,123.58,1.53,156.7q-3.06,99.3,0,198.6c.8,33.12,19.51,66.37,50.83,82.8,51.55,27.3,108.15,50.64,160,68.51a99.52,99.52,0,0,0,64.63,0q6.8-2.34,13.71-4.83A140,140,0,0,1,252.15,404.93Z"></path>
    <path
    fill="#d10303" d="M393.22,297.81A107.13,107.13,0,1,0,500.35,404.93,107.13,107.13,0,0,0,393.22,297.81Zm42.46,122.8H391.09a12.75,12.75,0,0,1-12.75-12.75v-68.5a12.75,12.75,0,0,1,25.5,0v55.75h31.84a12.75,12.75,0,0,1,0,25.5Z"></path>
</svg>