<?xml version="1.0" encoding="UTF-8"?>
<svg version="1.1" viewBox="0 0 1024 1024" width="1280" height="1280" xmlns="http://www.w3.org/2000/svg">
<path transform="translate(467,208)" d="m0 0h21l12 3 10 6 10 9 8 10 5 12 3 14v12l7 8 8 8 11 9 17 12 19 11 27 12 21 8 24 7 7 1 112 1 11 3 10 5 9 8 7 11 4 12 1 9v28l-2 16-4 10-8 11-9 7-11 5-11 2h-34l5 34 6 24 7 20 12 25 10 15 12 14 17 13 13 12 8 10 8 14 5 13 3 15v23l-3 14 23 2 20 4 19 7 16 9 12 9 13 12 12 15 9 16 6 14 5 18 2 13-1 10-5 7-7 3 3 21v11l-3 19-5 15-9 17-10 13-7 7-12 9-17 9-16 5-10 2-18 1-17-2-16-5-16-8-9-6-10-9-8-8-7-10-8-15-5-16v-6l-12 12-3 1h-10l-5-3-5-6-8-21-1-6-9 6-3 1-275 1-6 25-6 13-7 12-7 9-12 12-15 10-16 7-21 5-17 1-17-2-17-5-16-8-12-9-8-7-9-11-9-14-6-14-4-17-1-7-18-2-13-5-10-6-10-9-9-14-5-13-2-10v-27l3-18 5-19 9-26 11-24 11-22 13-23 11-17-5-5-9-7-11-11-10-15-7-16-4-18v-15l3-6 7-6 32-1h226l9 1 7 5 3 6v90l-5 12-3 11-2 14v13l3 16 5 13 7 11 11 13 2 1v-11l4-63 7-119v-21l-4-6-5-3-10-2-72-8-15-4-11-7-7-7-6-10-4-13v-13l10-49 15-71 15-73 7-32 5-13 7-10 9-9 10-6 10-4zm46 164-2 7-9 38-1 5v9l4 6 8 5 69 26 14 6 9 7 7 8 5 10 2 7v20l-10 96-10 92-6 57v9h61l1-1v-349l-6-2-23-4-20-5-26-9-29-14-20-12-16-12z" fill="#6062E4"/>
<path transform="translate(58,256)" d="m0 0h234l11 2 12 6 10 9 7 11 3 9 1 9v178l-1 11-5 12-8 11-9 7-8 4-8 2-10 1h-224l-13-2-10-4-9-7-7-8-6-12-2-10v-188l4-13 6-10 9-9 16-8z" fill="#2C2D82"/>
<path transform="translate(467,208)" d="m0 0h21l12 3 10 6 10 9 8 10 5 12 3 14v12l7 8 8 8 11 9 17 12 19 11 27 12 21 8 23 7v2l-10 7-3 4-1 62-1 5-11-1-17-3-20-5-26-9-29-14-20-12-16-12h-2l-7 31-4 18v9l4 6 12 6 40 15 34 13 11 7 8 8 5 8 4 12v20l-10 96-10 92-6 57-2 8-28 1h-41l-8-2-11-7-6-7-1-3 1-25 10-166v-21l-4-6-5-3-10-2-72-8-15-4-11-7-7-7-6-10-4-13v-13l10-49 15-71 15-73 7-32 5-13 7-10 9-9 10-6 10-4z" fill="#2C2D82"/>
<path transform="translate(856,725)" d="m0 0h12l21 3 15 4 17 7 15 9 10 8 12 11 12 15 9 16 6 14 5 18 2 13-1 10-5 7-7 3 3 21v11l-3 19-5 15-9 17-10 13-7 7-12 9-17 9-16 5-10 2-18 1-17-2-16-5-16-8-9-6-10-9-8-8-7-10-8-15-5-16v-6l-12 12-3 1h-10l-5-3-5-6-8-21v-5l8-8 11-9 12-11 17-17 9-11 11-12 12-16 9-13 9-15 8-16 5-11 8-20z" fill="#2C2D82"/>
<path transform="translate(234,557)" d="m0 0h226l9 1 7 5 3 6v90l-2 4-6 4-4 1h-183l-13-1-16-4-17-7-13-10-12-12-10-15-7-16-4-18v-15l3-6 7-6z" fill="#C0130F"/>
<path transform="translate(856,725)" d="m0 0h12l21 3 15 4 17 7 15 9 10 8 12 11 12 15 9 16 6 14 5 18 2 13-1 10-5 7-4 2-9-1-21-6-25-5-8-1h-21l-21 3-18 4-18 6-14 6-17 10-19 14-10 9-4 7-7 8-3 3-3 1h-10l-5-3-5-6-8-21v-5l8-8 11-9 12-11 17-17 9-11 11-12 12-16 9-13 9-15 8-16 5-11 8-20z" fill="#C0130E"/>
<path transform="translate(519,32)" d="m0 0h17l16 3 12 5 14 9 7 6 11 14 7 14 4 14 1 7v13l-2 14-4 12-7 13-7 9-10 10-13 8-12 5-12 3-8 1h-11l-17-3-16-7-11-7-7-6-11-14-8-16-4-17v-20l4-17 8-16 8-11 7-7 13-9 13-6 10-3z" fill="#2C2D82"/>
<path transform="translate(243,891)" d="m0 0h177l23 1 4 1-1 9-4 15-6 13-7 12-7 9-12 12-15 10-16 7-21 5-17 1-17-2-17-5-16-8-12-9-8-7-9-11-9-14-6-14-4-17z" fill="#2C2D82"/>
</svg>
