<svg xmlns="http://www.w3.org/2000/svg" width="24" height="24" fill="none" viewBox="0 0 24 24"
    id="album">
    <path fill="#2c2e83"
        d="M17.2905 11.9689C17.2905 12.7076 16.6984 13.3064 15.9679 13.3064C15.2374 13.3064 14.6453 12.7076 14.6453 11.9689C14.6453 11.2302 15.2374 10.6314 15.9679 10.6314C16.6984 10.6314 17.2905 11.2302 17.2905 11.9689Z"></path>
    <path fill="#d10303" fill-rule="evenodd"
        d="M18.1316 7.40823C17.2832 7.28756 16.1897 7.28758 14.8267 7.2876H9.17326C7.81031 7.28758 6.7168 7.28756 5.86839 7.40823C4.99062 7.53307 4.25955 7.80097 3.71603 8.42875C3.17252 9.05653 3.00655 9.82475 3.00019 10.7211C2.99404 11.5875 3.13858 12.6836 3.31873 14.0498L3.68419 16.8216C3.825 17.8897 3.93897 18.7542 4.11616 19.4311C4.3006 20.1357 4.57289 20.7199 5.08383 21.1723C5.59477 21.6246 6.20337 21.8204 6.91841 21.9121C7.60534 22.0003 8.46777 22.0003 9.53332 22.0002H14.4667C15.5322 22.0003 16.3947 22.0003 17.0816 21.9121C17.7966 21.8204 18.4052 21.6246 18.9162 21.1723C19.4271 20.7199 19.6994 20.1357 19.8838 19.4311C20.061 18.7542 20.175 17.8897 20.3158 16.8216L20.6813 14.0498C20.8614 12.6836 21.006 11.5875 20.9998 10.7211C20.9934 9.82475 20.8275 9.05653 20.284 8.42875C19.7404 7.80097 19.0094 7.53307 18.1316 7.40823ZM6.05259 8.73271C5.32568 8.8361 4.95802 9.02467 4.71116 9.3098C4.4643 9.59494 4.32805 9.9884 4.32278 10.7307C4.31738 11.492 4.44802 12.4947 4.63662 13.9251L4.68663 14.3044L5.05822 14.0322C6.0171 13.33 7.43388 13.3645 8.34576 14.1278L11.7301 16.9605C12.0499 17.2283 12.6011 17.2783 12.9989 17.0443L13.2341 16.9059C14.3594 16.244 15.8676 16.3138 16.9059 17.096L18.7378 18.476C18.8281 17.9804 18.909 17.3712 19.0107 16.6001L19.3634 13.9251C19.552 12.4947 19.6826 11.492 19.6772 10.7307C19.6719 9.9884 19.5357 9.59494 19.2888 9.3098C19.042 9.02467 18.6743 8.8361 17.9474 8.73271C17.2019 8.62668 16.2018 8.62511 14.7748 8.62511H9.22521C7.79821 8.62511 6.7981 8.62668 6.05259 8.73271Z"
        clip-rule="evenodd"></path>
    <path fill="#2c2e83"
        d="M6.87957 4.5C5.62801 4.5 4.60177 5.33974 4.2593 6.45377 4.25216 6.477 4.24531 6.50034 4.23877 6.5238 4.5971 6.40323 4.97003 6.32446 5.34755 6.27068 6.31989 6.13218 7.54869 6.13225 8.97612 6.13234L9.08272 6.13234 15.179 6.13234C16.6064 6.13225 17.8352 6.13218 18.8076 6.27068 19.1851 6.32446 19.558 6.40323 19.9164 6.5238 19.9098 6.50034 19.903 6.477 19.8958 6.45377 19.5534 5.33974 18.5271 4.5 17.2756 4.5H6.87957zM8.85899 2.00001H15.1411C15.3503 1.99995 15.5107 1.99991 15.651 2.01515 16.648 2.12351 17.4641 2.78957 17.8101 3.68676H6.18994C6.53601 2.78957 7.35208 2.12351 8.34912 2.01515 8.48935 1.99991 8.64976 1.99995 8.85899 2.00001z"></path>
</svg>