<?xml version="1.0" encoding="UTF-8"?>
<svg version="1.1" viewBox="0 0 1024 1024" width="1280" height="1280" xmlns="http://www.w3.org/2000/svg">
<path transform="translate(480)" d="m0 0h66l39 9 27 9 16 7 22 12 19 13 10 8 14 12 15 15 11 14 9 12 9 14 9 16 10 21 9 24 7 26 4 20 3 22 1 15v42l-2 22-5 25-7 27-12 36-11 27-15 33-12 24-12 22-8 14-1 3h124l8 4 6 5 8 14 14 33 144 336 17 40 4 12v14l-5 10-7 7-8 5h-977l-11-6-7-7-5-9v-16l11-25 23-54 144-336 8-16 8-7 9-4h123l-18-33-15-29-14-30-11-27-12-34-9-34-5-28-2-19v-40l3-29 4-23 6-25 8-24 10-23 10-19 14-21 10-13 11-12 7-8 12-11 14-11 16-11 21-12 22-10 24-8 26-6zm18 180-17 4-14 6-13 9-11 10-9 12-8 15-4 13-2 12v19l4 18 5 12 7 12 11 13 10 8 13 8 16 6 16 3h11l22-4 15-6 13-8 11-9v-2h2l10-14 8-16 4-15 2-13-1-14-4-18-8-17-7-10-9-10-10-8-14-8-14-5-17-3z" fill="#C32400"/>
<path transform="translate(203,544)" d="m0 0h122l6 7 15 25 14 22 2 3-1 3h-132l-3 10-17 39-9 22-6 13-11 26-15 35-16 37-11 26-1 2 23-12 20-10 19-10 30-15 19-10 30-15 19-10 20-10 19-10 30-15 19-10 23-12 4 2 9 13 9 12 10 13 5 6v4l-19 9-19 10-45 23-25 13v3l4 2 172 172 8 6 420 1-20-47-15-35-13-31-12-28-11-27-13-30-23-54-13-30-33-77-8-1h-124l-1-2 8-12 12-19 10-17 6-8 2-2h123l8 4 6 5 8 14 14 33 144 336 17 40 4 12v14l-5 10-7 7-8 5h-977l-11-6-7-7-5-9v-16l11-25 23-54 144-336 8-16 8-7z" fill="#DFF4FE"/>
<path transform="translate(506)" d="m0 0h40l39 9 27 9 16 7 22 12 19 13 10 8 14 12 15 15 11 14 9 12 9 14 9 16 10 21 9 24 7 26 4 20 3 22 1 15v42l-2 22-5 25-7 27-12 36-11 27-15 33-12 24-12 22-8 14-1 5-4 5-12 20-12 19-8 12h-2l-2 6-8 11-10 15-13 18-14 19-13 18-9 12-7 8-8 11-10 13-2 3h-2l-2 4-10 13-12 14-10 9-10 5h-5l-3-4 1-15-1-14 1-52v-69l-1-31v-78l1-19v-15l1-36v-45l1-36h-2l-1-6 6-2 22-4 15-6 13-8 10-8 1-2h2l2-4 7-10 8-16 4-15 2-13-1-14-4-18-8-17-7-10-9-10-12-9-16-8-14-4-15-3-5-2v-90l1-77v-7l1-2-4-1z" fill="#CB0B14"/>
<path transform="translate(657,602)" d="m0 0 2 1h124l8 1 6 12 13 31 13 30 57 133 13 32 13 30 13 31 19 44 6 14v3h-420l-11-9-174-174 3-3 78-40 25-13h3l1-3 7 7 10 13 6 8 11 14 9 9 8 4 9 3h6l11-6 10-9 12-14 9-12 2-3h2l2-4 10-13 12-16 6-7 13-18 14-19 13-18 7-10 15-22z" fill="#2C2E84"/>
<path transform="translate(696,544)" d="m0 0h123l8 4 6 5 8 14 14 33 144 336 17 40 4 12v14l-5 10-7 7-8 5h-490v-65l6 1v-2l4 2 4 3 420 1-20-47-15-35-13-31-12-28-11-27-13-30-23-54-13-30-33-77-8-1h-124l-1-2 8-12 12-19 10-17 6-8z" fill="#BADDFE"/>
<path transform="translate(281,809)" d="m0 0 4 2 7 7 5 4 7 8 86 86 8 7 12 13 24 24 2 1-1 3-157 1h-39l-163-1 1-5 23-54 3-5 45-23 34-17 19-10 28-14 19-10z" fill="#2C2E84"/>
<path transform="translate(362,602)" d="m0 0 5 5 16 24 10 14 13 18 7 11-4 3-39 20-19 10-30 15-36 19-52 26-19 10-24 12-19 10-28 14-3 1 3-9 15-35 13-30 12-28 15-36 6-13 11-26 12-28 2-5 132-1z" fill="#2C2E84"/>
<path transform="translate(643,624)" d="m0 0h1v5l-2 3h-2l-1 4h-2l-2 5-7 11-4 5h-2l-2 5-11 16-14 19-8 11-10 13-8 10-4 4-18 22-1 2h-2v2h-2l-2 4-7 8-14 10-3 2-6 1-9-3-11-7-5-4-9-11-8-9v-2l-4-2-5-5-6-8-3-5v-2l-5-1v-2h3l1-3 7 7 10 13 6 8 11 14 9 9 8 4 9 3h6l11-6 10-9 12-14 9-12 2-3h2l2-4 10-13 12-16 6-7 13-18 14-19 13-18 7-10z" fill="#2C2174"/>
<path transform="translate(362,602)" d="m0 0 5 5 16 24 10 14 13 18 7 11-4 3-13 7-4-1 7-5h2v-10l-4-6v-2l-4-2-7-11-3-7-11-18-8-11-1-3-2-1-22-1v-1l11-1 5-1h6z" fill="#2C2174"/>
<path transform="translate(656,604)" d="m0 0 16 1-1 2-10 3-10 6-3 2 2-5z" fill="#2D2174"/>
<path transform="translate(818,544)" d="m0 0 8 3v1h-21l-1-1-7-1v-1z" fill="#E0F5FE"/>
<path transform="translate(939,954)" d="m0 0 3 3 1 6h-7l3-2z" fill="#2C2377"/>
</svg>
