<?xml version="1.0" encoding="UTF-8"?>
<svg version="1.1" viewBox="0 0 1024 1024" width="1280" height="1280" xmlns="http://www.w3.org/2000/svg">
<path transform="translate(113)" d="m0 0h476l18 8 12 7 12 11 9 11 8 16 3 10 1 9v92l208-1h75l16 2 8 4 10 9 6 10 3 9 1 15-1 412-4 12-6 9-8 7-8 4-12 3h-287l-1 292-2 13-5 13-7 12-8 10-10 9-14 8-11 5-8 3h-471l-21-7-13-7-14-12-9-12-8-16-4-14-1-8v-873l3-16 5-13 9-14 9-10 11-9 16-8z" fill="#2B2D83"/>
<path transform="translate(546,52)" d="m0 0h21l10 1 10 5 5 4 6 10 2 10v81l-3 1-377 1-10 3-10 7-7 8-4 9-1 4-1 274v120l1 35 4 12 8 10 11 7 12 3 376 1 1 2v279l-2 12-6 11-8 6-8 3-15 1-111-1h-320l-12-2-9-6-5-6-4-9-1-9v-859l3-10 4-6 9-8 10-3h81l11 1 4 5 5 12 7 19 5 8 2 1h221l2-4 11-29 5-10 3-2 20-1z" fill="#FDFDFD"/>
<path transform="translate(188,475)" d="m0 0h178l15 2 13 5 10 7 7 8 9 19 2 10-1 10-8 20-6 8-7 7-10 6-13 4-11 1h-105l-72-1-3-2v-100z" fill="#CD1418"/>
<path transform="translate(265,751)" d="m0 0h169l12 3 10 6 8 8 7 14 1 3v18l-4 11-8 11-10 7-9 4-5 1-92 1h-68l-14-1-10-3-10-6-8-8-7-14-1-3v-16l3-10 6-10 4-5 11-7 9-3z" fill="#2B2D83"/>
<path transform="translate(749,453)" d="m0 0h7l8 5 5 6 5 12 16 43 19 50 5 13v10l-4 6-5 4-8 1-6-3-6-7-6-15-1-4h-50l-4 9-5 12-4 5-7 3-8-1-6-4-4-9 2-10 20-53 21-55 4-8 7-8z" fill="#FDFDFD"/>
<path transform="translate(618,453)" d="m0 0h33l15 2 9 4 10 6 8 9 6 12 2 8v16l-4 13-7 11-9 8-12 6-13 3h-22v41l-5 7-7 4-8-1-6-4-4-6-1-31v-90l2-9 5-6z" fill="#FDFDFD"/>
<path transform="translate(815,453)" d="m0 0h6l8 5 9 12 9 14 9 13 3-3 22-33 6-6 3-1h9l6 4 4 6v8l-6 12-10 15-11 17-9 14-1 9-1 53-4 6-5 4-9 1-9-6-3-6-1-60-7-12-18-27-10-16-2-9 3-7 7-6z" fill="#FDFDFD"/>
<path transform="translate(815,266)" d="m0 0h8l6 4 4 5 2 12v15l-2 11-7 7-4 1h-7l-6-4-4-6-1-3v-29l5-9z" fill="#FDFDFD"/>
<path transform="translate(641,266)" d="m0 0h7l8 6 3 5 1 5v20l-2 10-3 5-7 4h-7l-6-3-4-5-2-4v-29l3-7 7-6z" fill="#FDFDFD"/>
<path transform="translate(699,266)" d="m0 0h7l8 5 4 8v27l-2 7-5 6-5 2h-7l-6-4-4-5-2-8v-21l3-9 5-6z" fill="#FDFDFD"/>
<path transform="translate(562,266)" d="m0 0 8 1 7 6 3 8v24l-3 9-7 6-9 1-6-3-4-5-2-6v-28l5-9z" fill="#FDFDFD"/>
<path transform="translate(871,266)" d="m0 0 9 1 7 6 3 10v20l-2 9-6 7-5 2h-6l-8-5-3-5-1-4v-27l3-7 5-5z" fill="#FDFDFD"/>
<path transform="translate(634,484)" d="m0 0h23l8 4 4 5 2 5v9l-5 8-5 4-3 1h-24z" fill="#2B2D83"/>
<path transform="translate(752,508)" d="m0 0h2l9 25 3 10h-27l3-11 9-22z" fill="#2B2D83"/>
</svg>
