<?xml version="1.0" encoding="UTF-8"?>
<svg version="1.1" viewBox="0 0 1024 1024" width="1280" height="1280" xmlns="http://www.w3.org/2000/svg">
<path transform="translate(117)" d="m0 0h789l14 7 9 8 6 10 6 18 17 60 52 182 12 41 2 7v65l-6 18-8 15-8 10-9 9-11 8-1 528-3 12-6 10-7 7-9 5-9 4h-871l-16-8-9-9-7-14-2-10v-526l-5-2-12-11-7-7-9-14-5-11-4-13v-68l6-19 80-280 5-12 9-10 5-4z" fill="#2B2D83"/>
<path transform="translate(117)" d="m0 0h789l14 7 9 8 6 10 6 18 17 60 52 182 12 41 2 7v7l-1 1h-1023v-10l6-19 80-280 5-12 9-10 5-4z" fill="#6265E8"/>
<path transform="translate(1023,340)" d="m0 0h1v58l-6 18-8 15-8 10-9 9-11 8-2 3-31 8-24 2h-69l-55-2-22-5-12-5-13-9-7-7-10-14-8-16-4-12-3 9-5 12-7 11-11 14-14 10-17 8-15 4-9 1-44 1-204-1-22-1-25-6-14-8-9-7-8-8-7-10-8-16-3-13-7 16-8 14-7 9-7 8-14 10-13 6-17 5-30 2h-64l-51-2-25-4-14-4-1-4-5-2-12-11-7-7-9-14-5-11-4-13v-58z" fill="#CC140B"/>
<path transform="translate(694)" d="m0 0h212l14 7 9 8 6 10 6 18 17 60 52 182 12 41 2 7v7l-1 1h-309v-1h8l-4-44-7-79-13-158-4-51z" fill="#2B2D83"/>
<path transform="translate(117)" d="m0 0h213l-3 42-8 94-6 74-6 68-4 54v9h-303v-10l6-19 80-280 5-12 9-10 5-4z" fill="#2B2D83"/>
<path transform="translate(213,640)" d="m0 0h170l1 1v383h-171l-1-27v-356z" fill="#FEFEFE"/>
<path transform="translate(682,640)" d="m0 0h127l1 1 1 62v21l-1 1-127 1-1-7z" fill="#FEFEFE"/>
</svg>
