<svg xmlns="http://www.w3.org/2000/svg" viewBox="0 0 47.06 47.06" id="shop">
    <path fill="#d10303"
        d="m16.15 10.28-2.16 10.93a.88.88 0 0 0 0 .17 1.94 1.94 0 0 1-2 1.92h-.08a1.82 1.82 0 0 1-1.41-.76 1.85 1.85 0 0 1-.29-1.64l2.76-9.27a1.91 1.91 0 0 1 1.83-1.35zM36.82 20.9l-2.76-9.27a1.89 1.89 0 0 0-1.83-1.35h-1.35l.29 1.49c0 .15.06.31.1.46.09.46.17.89.25 1.31s.16.8.24 1.17l.14.71.06.34c.07.33.13.64.19.93l.11.57c0 .09 0 .18.05.27l.14.72.09.43.11.56.07.33v.16l.05.28c.13.61.19 1 .23 1.17a1.27 1.27 0 0 0 0 .18v.07a.13.13 0 0 1 0 .05 1.94 1.94 0 0 0 2 1.82h.08a1.82 1.82 0 0 0 1.41-.76 1.85 1.85 0 0 0 .33-1.64zm0 0-2.76-9.27a1.89 1.89 0 0 0-1.83-1.35h-1.35l.29 1.49c0 .15.06.31.1.46.09.46.17.89.25 1.31s.16.8.24 1.17l.14.71.06.34c.07.33.13.64.19.93l.11.57c0 .09 0 .18.05.27l.14.72.09.43.11.56.07.33v.16l.05.28c.13.61.19 1 .23 1.17a1.27 1.27 0 0 0 0 .18v.07a.13.13 0 0 1 0 .05 1.94 1.94 0 0 0 2 1.82h.08a1.82 1.82 0 0 0 1.41-.76 1.85 1.85 0 0 0 .33-1.64zm-5.63.39c0-.17-.08-.4-.14-.67s-.07-.37-.12-.59l-.13-.69c0-.12-.05-.24-.07-.37-.09-.43-.18-.91-.28-1.4l-.2-1c-.11-.52-.21-1.06-.32-1.6s-.19-1-.29-1.44c-.22-1.13-.43-2.22-.62-3.17a.43.43 0 0 0 0-.05h-2.41l.67 11a.19.19 0 0 0 0 .08 2 2 0 0 0 2 1.9 1.93 1.93 0 0 0 1.94-1.74c0-.05-.02-.14-.03-.26zm-6.38-11h-2.52l-.68 11.15a1.92 1.92 0 0 0 2 1.86 2 2 0 0 0 2-1.9zm-6.79 0-2.21 11.17a2 2 0 0 0 3.92-.09l.71-11.1zm0 0-2.21 11.17a2 2 0 0 0 3.92-.09l.71-11.1zm6.79 0h-2.52l-.68 11.15a1.92 1.92 0 0 0 2 1.86 2 2 0 0 0 2-1.9zm6.38 11c0-.17-.08-.4-.14-.67s-.07-.37-.12-.59l-.13-.69c0-.12-.05-.24-.07-.37-.09-.43-.18-.91-.28-1.4l-.2-1c-.11-.52-.21-1.06-.32-1.6s-.19-1-.29-1.44c-.22-1.13-.43-2.22-.62-3.17a.43.43 0 0 0 0-.05h-2.41l.67 11a.19.19 0 0 0 0 .08 2 2 0 0 0 2 1.9 1.93 1.93 0 0 0 1.94-1.74c0-.05-.02-.14-.03-.26zm5.63-.39-2.76-9.27a1.89 1.89 0 0 0-1.83-1.35h-1.35l.29 1.49c0 .15.06.31.1.46.09.46.17.89.25 1.31s.16.8.24 1.17l.14.71.06.34c.07.33.13.64.19.93l.11.57c0 .09 0 .18.05.27l.14.72.09.43.11.56.07.33v.16l.05.28c.13.61.19 1 .23 1.17a1.27 1.27 0 0 0 0 .18v.07a.13.13 0 0 1 0 .05 1.94 1.94 0 0 0 2 1.82h.08a1.82 1.82 0 0 0 1.41-.76 1.85 1.85 0 0 0 .33-1.64zm0 0-2.76-9.27a1.89 1.89 0 0 0-1.83-1.35h-1.35l.29 1.49c0 .15.06.31.1.46.09.46.17.89.25 1.31s.16.8.24 1.17l.14.71.06.34c.07.33.13.64.19.93l.11.57c0 .09 0 .18.05.27l.14.72.09.43.11.56.07.33v.16l.05.28c.13.61.19 1 .23 1.17a1.27 1.27 0 0 0 0 .18v.07a.13.13 0 0 1 0 .05 1.94 1.94 0 0 0 2 1.82h.08a1.82 1.82 0 0 0 1.41-.76 1.85 1.85 0 0 0 .33-1.64zm-5.63.39c0-.17-.08-.4-.14-.67s-.07-.37-.12-.59l-.13-.69c0-.12-.05-.24-.07-.37-.09-.43-.18-.91-.28-1.4l-.2-1c-.11-.52-.21-1.06-.32-1.6s-.19-1-.29-1.44c-.22-1.13-.43-2.22-.62-3.17a.43.43 0 0 0 0-.05h-2.41l.67 11a.19.19 0 0 0 0 .08 2 2 0 0 0 2 1.9 1.93 1.93 0 0 0 1.94-1.74c0-.05-.02-.14-.03-.26zm-6.38-11h-2.52l-.68 11.15a1.92 1.92 0 0 0 2 1.86 2 2 0 0 0 2-1.9zm-6.79 0-2.21 11.17a2 2 0 0 0 3.92-.09l.71-11.1zm0 0-2.21 11.17a2 2 0 0 0 3.92-.09l.71-11.1zm6.79 0h-2.52l-.68 11.15a1.92 1.92 0 0 0 2 1.86 2 2 0 0 0 2-1.9zm6.16 18.18h-5.24a.26.26 0 0 0-.14.05.26.26 0 0 0-.06.15v3.57a.2.2 0 0 0 .2.19h5.22a.21.21 0 0 0 .15-.06.21.21 0 0 0 0-.14v-3.57a.19.19 0 0 0-.13-.2zm.22-7.17c0-.17-.08-.4-.14-.67s-.07-.37-.12-.59l-.13-.69c0-.12-.05-.24-.07-.37-.09-.43-.18-.91-.28-1.4l-.2-1c-.11-.52-.21-1.06-.32-1.6s-.19-1-.29-1.44c-.22-1.13-.43-2.22-.62-3.17a.43.43 0 0 0 0-.05h-2.41l.67 11a.19.19 0 0 0 0 .08 2 2 0 0 0 2 1.9 1.93 1.93 0 0 0 1.94-1.74c0-.06-.02-.15-.03-.27zm-.22 7.17h-5.24a.26.26 0 0 0-.14.05.26.26 0 0 0-.06.15v3.57a.2.2 0 0 0 .2.19h5.22a.21.21 0 0 0 .15-.06.21.21 0 0 0 0-.14v-3.57a.19.19 0 0 0-.13-.2zm0 0h-5.24a.26.26 0 0 0-.14.05.26.26 0 0 0-.06.15v3.57a.2.2 0 0 0 .2.19h5.22a.21.21 0 0 0 .15-.06.21.21 0 0 0 0-.14v-3.57a.19.19 0 0 0-.13-.2zm0 0h-5.24a.26.26 0 0 0-.14.05.26.26 0 0 0-.06.15v3.57a.2.2 0 0 0 .2.19h5.22a.21.21 0 0 0 .15-.06.21.21 0 0 0 0-.14v-3.57a.19.19 0 0 0-.13-.2zm0 0h-5.24a.26.26 0 0 0-.14.05.26.26 0 0 0-.06.15v3.57a.2.2 0 0 0 .2.19h5.22a.21.21 0 0 0 .15-.06.21.21 0 0 0 0-.14v-3.57a.19.19 0 0 0-.13-.2zm0 0h-5.24a.26.26 0 0 0-.14.05.26.26 0 0 0-.06.15v3.57a.2.2 0 0 0 .2.19h5.22a.21.21 0 0 0 .15-.06.21.21 0 0 0 0-.14v-3.57a.19.19 0 0 0-.13-.2zm0 0h-5.24a.26.26 0 0 0-.14.05.26.26 0 0 0-.06.15v3.57a.2.2 0 0 0 .2.19h5.22a.21.21 0 0 0 .15-.06.21.21 0 0 0 0-.14v-3.57a.19.19 0 0 0-.13-.2zm0 0h-5.24a.26.26 0 0 0-.14.05.26.26 0 0 0-.06.15v3.57a.2.2 0 0 0 .2.19h5.22a.21.21 0 0 0 .15-.06.21.21 0 0 0 0-.14v-3.57a.19.19 0 0 0-.13-.2zm1.2-3.41a4.79 4.79 0 0 1-2.88 1 4.76 4.76 0 0 0-5.76 0 4.72 4.72 0 0 1-2.87-1 4.82 4.82 0 0 1-2.89 1 4.72 4.72 0 0 1-2.88-1 4.66 4.66 0 0 1-2.07.91v10.32a.51.51 0 0 0 .52.51h.76a.25.25 0 0 0 .26-.26V29.1a2.1 2.1 0 0 1 2.12-2.08h3.3a2.1 2.1 0 0 1 2.12 2.08v7.42a.26.26 0 0 0 .26.26h11.56a.51.51 0 0 0 .52-.51V25.95a4.75 4.75 0 0 1-2.07-.85zm.83 7.18a2 2 0 0 1-.6 1.42 2 2 0 0 1-1.43.59h-5.23a2 2 0 0 1-2-2v-3.57a2 2 0 0 1 .6-1.42 2 2 0 0 1 1.44-.59h5.24a2 2 0 0 1 2 2zm-2-3.77h-5.24a.26.26 0 0 0-.14.05.26.26 0 0 0-.06.15v3.57a.2.2 0 0 0 .2.19h5.22a.21.21 0 0 0 .15-.06.21.21 0 0 0 0-.14v-3.57a.19.19 0 0 0-.16-.2zm0 0h-5.24a.26.26 0 0 0-.14.05.26.26 0 0 0-.06.15v3.57a.2.2 0 0 0 .2.19h5.22a.21.21 0 0 0 .15-.06.21.21 0 0 0 0-.14v-3.57a.19.19 0 0 0-.16-.2zm0 0h-5.24a.26.26 0 0 0-.14.05.26.26 0 0 0-.06.15v3.57a.2.2 0 0 0 .2.19h5.22a.21.21 0 0 0 .15-.06.21.21 0 0 0 0-.14v-3.57a.19.19 0 0 0-.16-.2zm0 0h-5.24a.26.26 0 0 0-.14.05.26.26 0 0 0-.06.15v3.57a.2.2 0 0 0 .2.19h5.22a.21.21 0 0 0 .15-.06.21.21 0 0 0 0-.14v-3.57a.19.19 0 0 0-.16-.2zm0 0h-5.24a.26.26 0 0 0-.14.05.26.26 0 0 0-.06.15v3.57a.2.2 0 0 0 .2.19h5.22a.21.21 0 0 0 .15-.06.21.21 0 0 0 0-.14v-3.57a.19.19 0 0 0-.16-.2zm0 0h-5.24a.26.26 0 0 0-.14.05.26.26 0 0 0-.06.15v3.57a.2.2 0 0 0 .2.19h5.22a.21.21 0 0 0 .15-.06.21.21 0 0 0 0-.14v-3.57a.19.19 0 0 0-.16-.2zm0 0h-5.24a.26.26 0 0 0-.14.05.26.26 0 0 0-.06.15v3.57a.2.2 0 0 0 .2.19h5.22a.21.21 0 0 0 .15-.06.21.21 0 0 0 0-.14v-3.57a.19.19 0 0 0-.16-.2zm5.85-7.56-2.76-9.27a1.89 1.89 0 0 0-1.83-1.35h-1.35l.29 1.49c0 .15.06.31.1.46.09.46.17.89.25 1.31s.16.8.24 1.17l.14.71.06.34c.07.33.13.64.19.93l.11.57c0 .09 0 .18.05.27l.14.72.09.43.11.56.07.33v.16l.05.28c.13.61.19 1 .23 1.17a1.27 1.27 0 0 0 0 .18v.07a.13.13 0 0 1 0 .05 1.94 1.94 0 0 0 2 1.82h.08a1.82 1.82 0 0 0 1.41-.76 1.85 1.85 0 0 0 .3-1.65zm0 0-2.76-9.27a1.89 1.89 0 0 0-1.83-1.35h-1.35l.29 1.49c0 .15.06.31.1.46.09.46.17.89.25 1.31s.16.8.24 1.17l.14.71.06.34c.07.33.13.64.19.93l.11.57c0 .09 0 .18.05.27l.14.72.09.43.11.56.07.33v.16l.05.28c.13.61.19 1 .23 1.17a1.27 1.27 0 0 0 0 .18v.07a.13.13 0 0 1 0 .05 1.94 1.94 0 0 0 2 1.82h.08a1.82 1.82 0 0 0 1.41-.76 1.85 1.85 0 0 0 .3-1.65zM31 28.47h-5.24a.26.26 0 0 0-.14.05.26.26 0 0 0-.06.15v3.57a.2.2 0 0 0 .2.19h5.22a.21.21 0 0 0 .15-.06.21.21 0 0 0 0-.14v-3.57a.19.19 0 0 0-.16-.2zm0 0h-5.24a.26.26 0 0 0-.14.05.26.26 0 0 0-.06.15v3.57a.2.2 0 0 0 .2.19h5.22a.21.21 0 0 0 .15-.06.21.21 0 0 0 0-.14v-3.57a.19.19 0 0 0-.16-.2zm0 0h-5.24a.26.26 0 0 0-.14.05.26.26 0 0 0-.06.15v3.57a.2.2 0 0 0 .2.19h5.22a.21.21 0 0 0 .15-.06.21.21 0 0 0 0-.14v-3.57a.19.19 0 0 0-.16-.2zm0 0h-5.24a.26.26 0 0 0-.14.05.26.26 0 0 0-.06.15v3.57a.2.2 0 0 0 .2.19h5.22a.21.21 0 0 0 .15-.06.21.21 0 0 0 0-.14v-3.57a.19.19 0 0 0-.16-.2zm0 0h-5.24a.26.26 0 0 0-.14.05.26.26 0 0 0-.06.15v3.57a.2.2 0 0 0 .2.19h5.22a.21.21 0 0 0 .15-.06.21.21 0 0 0 0-.14v-3.57a.19.19 0 0 0-.16-.2zm0 0h-5.24a.26.26 0 0 0-.14.05.26.26 0 0 0-.06.15v3.57a.2.2 0 0 0 .2.19h5.22a.21.21 0 0 0 .15-.06.21.21 0 0 0 0-.14v-3.57a.19.19 0 0 0-.16-.2zm1.2-3.41a4.79 4.79 0 0 1-2.88 1 4.76 4.76 0 0 0-5.76 0 4.72 4.72 0 0 1-2.87-1 4.82 4.82 0 0 1-2.89 1 4.72 4.72 0 0 1-2.88-1 4.66 4.66 0 0 1-2.07.91v10.32a.51.51 0 0 0 .52.51h.76a.25.25 0 0 0 .26-.26V29.1a2.1 2.1 0 0 1 2.12-2.08h3.3a2.1 2.1 0 0 1 2.12 2.08v7.42a.26.26 0 0 0 .26.26h11.56a.51.51 0 0 0 .52-.51V25.95a4.75 4.75 0 0 1-2.1-.85zm.83 7.18a2 2 0 0 1-.6 1.42 2 2 0 0 1-1.43.59h-5.23a2 2 0 0 1-2-2v-3.57a2 2 0 0 1 .6-1.42 2 2 0 0 1 1.44-.59h5.24a2 2 0 0 1 2 2zm-2-3.77h-5.24a.26.26 0 0 0-.14.05.26.26 0 0 0-.06.15v3.57a.2.2 0 0 0 .2.19h5.22a.21.21 0 0 0 .15-.06.21.21 0 0 0 0-.14v-3.57a.19.19 0 0 0-.19-.2zm0 0h-5.24a.26.26 0 0 0-.14.05.26.26 0 0 0-.06.15v3.57a.2.2 0 0 0 .2.19h5.22a.21.21 0 0 0 .15-.06.21.21 0 0 0 0-.14v-3.57a.19.19 0 0 0-.19-.2zm0 0h-5.24a.26.26 0 0 0-.14.05.26.26 0 0 0-.06.15v3.57a.2.2 0 0 0 .2.19h5.22a.21.21 0 0 0 .15-.06.21.21 0 0 0 0-.14v-3.57a.19.19 0 0 0-.19-.2zm0 0h-5.24a.26.26 0 0 0-.14.05.26.26 0 0 0-.06.15v3.57a.2.2 0 0 0 .2.19h5.22a.21.21 0 0 0 .15-.06.21.21 0 0 0 0-.14v-3.57a.19.19 0 0 0-.19-.2zm0 0h-5.24a.26.26 0 0 0-.14.05.26.26 0 0 0-.06.15v3.57a.2.2 0 0 0 .2.19h5.22a.21.21 0 0 0 .15-.06.21.21 0 0 0 0-.14v-3.57a.19.19 0 0 0-.19-.2zm0 0h-5.24a.26.26 0 0 0-.14.05.26.26 0 0 0-.06.15v3.57a.2.2 0 0 0 .2.19h5.22a.21.21 0 0 0 .15-.06.21.21 0 0 0 0-.14v-3.57a.19.19 0 0 0-.19-.2zm.22-7.17c0-.17-.08-.4-.14-.67s-.07-.37-.12-.59l-.13-.69c0-.12-.05-.24-.07-.37-.09-.43-.18-.91-.28-1.4l-.2-1c-.11-.52-.21-1.06-.32-1.6s-.19-1-.29-1.44c-.22-1.13-.43-2.22-.62-3.17a.43.43 0 0 0 0-.05h-2.47l.67 11a.19.19 0 0 0 0 .08 2 2 0 0 0 2 1.9 1.93 1.93 0 0 0 1.94-1.74c0-.06-.02-.15-.03-.27zm-.22 7.17h-5.24a.26.26 0 0 0-.14.05.26.26 0 0 0-.06.15v3.57a.2.2 0 0 0 .2.19h5.22a.21.21 0 0 0 .15-.06.21.21 0 0 0 0-.14v-3.57a.19.19 0 0 0-.19-.2zm-6.16-18.18h-2.52l-.74 11.15a1.92 1.92 0 0 0 2 1.86 2 2 0 0 0 2-1.9zm-6.79 0-2.21 11.17a2 2 0 0 0 3.92-.09l.71-11.1zm0 0-2.21 11.17a2 2 0 0 0 3.92-.09l.71-11.1zm6.79 0h-2.52l-.74 11.15a1.92 1.92 0 0 0 2 1.86 2 2 0 0 0 2-1.9zm6.16 18.18h-5.24a.26.26 0 0 0-.14.05.26.26 0 0 0-.06.15v3.57a.2.2 0 0 0 .2.19h5.22a.21.21 0 0 0 .15-.06.21.21 0 0 0 0-.14v-3.57a.19.19 0 0 0-.19-.2zm.22-7.17c0-.17-.08-.4-.14-.67s-.07-.37-.12-.59l-.13-.69c0-.12-.05-.24-.07-.37-.09-.43-.18-.91-.28-1.4l-.2-1c-.11-.52-.21-1.06-.32-1.6s-.19-1-.29-1.44c-.22-1.13-.43-2.22-.62-3.17a.43.43 0 0 0 0-.05h-2.47l.67 11a.19.19 0 0 0 0 .08 2 2 0 0 0 2 1.9 1.93 1.93 0 0 0 1.94-1.74c0-.06-.02-.15-.03-.27zm-.22 7.17h-5.24a.26.26 0 0 0-.14.05.26.26 0 0 0-.06.15v3.57a.2.2 0 0 0 .2.19h5.22a.21.21 0 0 0 .15-.06.21.21 0 0 0 0-.14v-3.57a.19.19 0 0 0-.19-.2zm0 0h-5.24a.26.26 0 0 0-.14.05.26.26 0 0 0-.06.15v3.57a.2.2 0 0 0 .2.19h5.22a.21.21 0 0 0 .15-.06.21.21 0 0 0 0-.14v-3.57a.19.19 0 0 0-.19-.2zm0 0h-5.24a.26.26 0 0 0-.14.05.26.26 0 0 0-.06.15v3.57a.2.2 0 0 0 .2.19h5.22a.21.21 0 0 0 .15-.06.21.21 0 0 0 0-.14v-3.57a.19.19 0 0 0-.19-.2zm0 0h-5.24a.26.26 0 0 0-.14.05.26.26 0 0 0-.06.15v3.57a.2.2 0 0 0 .2.19h5.22a.21.21 0 0 0 .15-.06.21.21 0 0 0 0-.14v-3.57a.19.19 0 0 0-.19-.2zm0 0h-5.24a.26.26 0 0 0-.14.05.26.26 0 0 0-.06.15v3.57a.2.2 0 0 0 .2.19h5.22a.21.21 0 0 0 .15-.06.21.21 0 0 0 0-.14v-3.57a.19.19 0 0 0-.19-.2zm1.2-3.41a4.79 4.79 0 0 1-2.88 1 4.76 4.76 0 0 0-5.76 0 4.72 4.72 0 0 1-2.87-1 4.82 4.82 0 0 1-2.89 1 4.72 4.72 0 0 1-2.88-1 4.66 4.66 0 0 1-2.07.91v10.32a.51.51 0 0 0 .52.51h.76a.25.25 0 0 0 .26-.26V29.1a2.1 2.1 0 0 1 2.12-2.08h3.3a2.1 2.1 0 0 1 2.12 2.08v7.42a.26.26 0 0 0 .26.26h11.56a.51.51 0 0 0 .52-.51V25.95a4.75 4.75 0 0 1-2.13-.85zm.83 7.18a2 2 0 0 1-.6 1.42 2 2 0 0 1-1.43.59H25.8a2 2 0 0 1-2-2v-3.57a2 2 0 0 1 .6-1.42 2 2 0 0 1 1.44-.59h5.24a2 2 0 0 1 2 2zm-2-3.77h-5.24a.26.26 0 0 0-.14.05.26.26 0 0 0-.06.15v3.57a.2.2 0 0 0 .2.19h5.22a.21.21 0 0 0 .15-.06.21.21 0 0 0 0-.14v-3.57a.19.19 0 0 0-.22-.2zm0 0h-5.24a.26.26 0 0 0-.14.05.26.26 0 0 0-.06.15v3.57a.2.2 0 0 0 .2.19h5.22a.21.21 0 0 0 .15-.06.21.21 0 0 0 0-.14v-3.57a.19.19 0 0 0-.22-.2zm0 0h-5.24a.26.26 0 0 0-.14.05.26.26 0 0 0-.06.15v3.57a.2.2 0 0 0 .2.19h5.22a.21.21 0 0 0 .15-.06.21.21 0 0 0 0-.14v-3.57a.19.19 0 0 0-.22-.2zm0 0h-5.24a.26.26 0 0 0-.14.05.26.26 0 0 0-.06.15v3.57a.2.2 0 0 0 .2.19h5.22a.21.21 0 0 0 .15-.06.21.21 0 0 0 0-.14v-3.57a.19.19 0 0 0-.22-.2zm0 0h-5.24a.26.26 0 0 0-.14.05.26.26 0 0 0-.06.15v3.57a.2.2 0 0 0 .2.19h5.22a.21.21 0 0 0 .15-.06.21.21 0 0 0 0-.14v-3.57a.19.19 0 0 0-.22-.2zm5.85-7.56-2.76-9.27a1.89 1.89 0 0 0-1.83-1.35h-1.35l.29 1.49c0 .15.06.31.1.46.09.46.17.89.25 1.31s.16.8.24 1.17l.14.71.06.34c.07.33.13.64.19.93l.11.57c0 .09 0 .18.05.27l.14.72.09.43.11.56.07.33v.16l.05.28c.13.61.19 1 .23 1.17a1.27 1.27 0 0 0 0 .18v.07a.13.13 0 0 1 0 .05 1.94 1.94 0 0 0 2 1.82h.08a1.82 1.82 0 0 0 1.41-.76 1.85 1.85 0 0 0 .24-1.65zm0 0-2.76-9.27a1.89 1.89 0 0 0-1.83-1.35h-1.35l.29 1.49c0 .15.06.31.1.46.09.46.17.89.25 1.31s.16.8.24 1.17l.14.71.06.34c.07.33.13.64.19.93l.11.57c0 .09 0 .18.05.27l.14.72.09.43.11.56.07.33v.16l.05.28c.13.61.19 1 .23 1.17a1.27 1.27 0 0 0 0 .18v.07a.13.13 0 0 1 0 .05 1.94 1.94 0 0 0 2 1.82h.08a1.82 1.82 0 0 0 1.41-.76 1.85 1.85 0 0 0 .24-1.65zm-5.85 7.56h-5.24a.26.26 0 0 0-.14.05.26.26 0 0 0-.06.15v3.57a.2.2 0 0 0 .2.19h5.22a.21.21 0 0 0 .15-.06.21.21 0 0 0 0-.14v-3.57a.19.19 0 0 0-.22-.2zm0 0h-5.24a.26.26 0 0 0-.14.05.26.26 0 0 0-.06.15v3.57a.2.2 0 0 0 .2.19h5.22a.21.21 0 0 0 .15-.06.21.21 0 0 0 0-.14v-3.57a.19.19 0 0 0-.22-.2zm0 0h-5.24a.26.26 0 0 0-.14.05.26.26 0 0 0-.06.15v3.57a.2.2 0 0 0 .2.19h5.22a.21.21 0 0 0 .15-.06.21.21 0 0 0 0-.14v-3.57a.19.19 0 0 0-.22-.2zm0 0h-5.24a.26.26 0 0 0-.14.05.26.26 0 0 0-.06.15v3.57a.2.2 0 0 0 .2.19h5.22a.21.21 0 0 0 .15-.06.21.21 0 0 0 0-.14v-3.57a.19.19 0 0 0-.22-.2zm1.2-3.41a4.79 4.79 0 0 1-2.88 1 4.76 4.76 0 0 0-5.76 0 4.72 4.72 0 0 1-2.87-1 4.82 4.82 0 0 1-2.89 1 4.72 4.72 0 0 1-2.88-1 4.66 4.66 0 0 1-2.07.91v10.32a.51.51 0 0 0 .52.51h.76a.25.25 0 0 0 .26-.26V29.1a2.1 2.1 0 0 1 2.12-2.08h3.3a2.1 2.1 0 0 1 2.12 2.08v7.42a.26.26 0 0 0 .26.26h11.56a.51.51 0 0 0 .52-.51V25.95a4.75 4.75 0 0 1-2.16-.85zm.83 7.18a2 2 0 0 1-.6 1.42 2 2 0 0 1-1.43.59h-5.23a2 2 0 0 1-2-2v-3.57a2 2 0 0 1 .6-1.42 2 2 0 0 1 1.44-.59h5.24a2 2 0 0 1 2 2zm-2-3.77h-5.24a.26.26 0 0 0-.14.05.26.26 0 0 0-.06.15v3.57a.2.2 0 0 0 .2.19h5.22a.21.21 0 0 0 .15-.06.21.21 0 0 0 0-.14v-3.57a.19.19 0 0 0-.25-.2zm0 0h-5.24a.26.26 0 0 0-.14.05.26.26 0 0 0-.06.15v3.57a.2.2 0 0 0 .2.19h5.22a.21.21 0 0 0 .15-.06.21.21 0 0 0 0-.14v-3.57a.19.19 0 0 0-.25-.2zm0 0h-5.24a.26.26 0 0 0-.14.05.26.26 0 0 0-.06.15v3.57a.2.2 0 0 0 .2.19h5.22a.21.21 0 0 0 .15-.06.21.21 0 0 0 0-.14v-3.57a.19.19 0 0 0-.25-.2zm0 0h-5.24a.26.26 0 0 0-.14.05.26.26 0 0 0-.06.15v3.57a.2.2 0 0 0 .2.19h5.22a.21.21 0 0 0 .15-.06.21.21 0 0 0 0-.14v-3.57a.19.19 0 0 0-.25-.2zm.22-7.17c0-.17-.08-.4-.14-.67s-.07-.37-.12-.59l-.13-.69c0-.12-.05-.24-.07-.37-.09-.43-.18-.91-.28-1.4l-.2-1c-.11-.52-.21-1.06-.32-1.6s-.19-1-.29-1.44c-.22-1.13-.43-2.22-.62-3.17a.43.43 0 0 0 0-.05h-2.53l.67 11a.19.19 0 0 0 0 .08 2 2 0 0 0 2 1.9 1.93 1.93 0 0 0 1.94-1.74c0-.06-.02-.15-.03-.27zm-.22 7.17h-5.24a.26.26 0 0 0-.14.05.26.26 0 0 0-.06.15v3.57a.2.2 0 0 0 .2.19h5.22a.21.21 0 0 0 .15-.06.21.21 0 0 0 0-.14v-3.57a.19.19 0 0 0-.25-.2zm-6.16-18.18h-2.52l-.8 11.15a1.92 1.92 0 0 0 2 1.86 2 2 0 0 0 2-1.9zm-6.79 0-2.21 11.17a2 2 0 0 0 3.92-.09l.71-11.1zm0 0-2.21 11.17a2 2 0 0 0 3.92-.09l.71-11.1zm6.79 0h-2.52l-.8 11.15a1.92 1.92 0 0 0 2 1.86 2 2 0 0 0 2-1.9zm6.16 18.18h-5.24a.26.26 0 0 0-.14.05.26.26 0 0 0-.06.15v3.57a.2.2 0 0 0 .2.19h5.22a.21.21 0 0 0 .15-.06.21.21 0 0 0 0-.14v-3.57a.19.19 0 0 0-.25-.2zm.22-7.17c0-.17-.08-.4-.14-.67s-.07-.37-.12-.59l-.13-.69c0-.12-.05-.24-.07-.37-.09-.43-.18-.91-.28-1.4l-.2-1c-.11-.52-.21-1.06-.32-1.6s-.19-1-.29-1.44c-.22-1.13-.43-2.22-.62-3.17a.43.43 0 0 0 0-.05h-2.53l.67 11a.19.19 0 0 0 0 .08 2 2 0 0 0 2 1.9 1.93 1.93 0 0 0 1.94-1.74c0-.06-.02-.15-.03-.27zm-.22 7.17h-5.24a.26.26 0 0 0-.14.05.26.26 0 0 0-.06.15v3.57a.2.2 0 0 0 .2.19h5.22a.21.21 0 0 0 .15-.06.21.21 0 0 0 0-.14v-3.57a.19.19 0 0 0-.25-.2zm0 0h-5.24a.26.26 0 0 0-.14.05.26.26 0 0 0-.06.15v3.57a.2.2 0 0 0 .2.19h5.22a.21.21 0 0 0 .15-.06.21.21 0 0 0 0-.14v-3.57a.19.19 0 0 0-.25-.2zm0 0h-5.24a.26.26 0 0 0-.14.05.26.26 0 0 0-.06.15v3.57a.2.2 0 0 0 .2.19h5.22a.21.21 0 0 0 .15-.06.21.21 0 0 0 0-.14v-3.57a.19.19 0 0 0-.25-.2zm1.2-3.41a4.79 4.79 0 0 1-2.88 1 4.76 4.76 0 0 0-5.76 0 4.72 4.72 0 0 1-2.87-1 4.82 4.82 0 0 1-2.89 1 4.72 4.72 0 0 1-2.88-1 4.66 4.66 0 0 1-2.07.91v10.32a.51.51 0 0 0 .52.51h.76a.25.25 0 0 0 .26-.26V29.1a2.1 2.1 0 0 1 2.12-2.08h3.3a2.1 2.1 0 0 1 2.12 2.08v7.42a.26.26 0 0 0 .26.26h11.56a.51.51 0 0 0 .52-.51V25.95a4.75 4.75 0 0 1-2.19-.85zm.83 7.18a2 2 0 0 1-.6 1.42 2 2 0 0 1-1.43.59h-5.23a2 2 0 0 1-2-2v-3.57a2 2 0 0 1 .6-1.42 2 2 0 0 1 1.44-.59h5.24a2 2 0 0 1 2 2zm-2-3.77h-5.24a.26.26 0 0 0-.14.05.26.26 0 0 0-.06.15v3.57a.2.2 0 0 0 .2.19h5.22a.21.21 0 0 0 .15-.06.21.21 0 0 0 0-.14v-3.57a.19.19 0 0 0-.28-.2zm0 0h-5.24a.26.26 0 0 0-.14.05.26.26 0 0 0-.06.15v3.57a.2.2 0 0 0 .2.19h5.22a.21.21 0 0 0 .15-.06.21.21 0 0 0 0-.14v-3.57a.19.19 0 0 0-.28-.2zm0 0h-5.24a.26.26 0 0 0-.14.05.26.26 0 0 0-.06.15v3.57a.2.2 0 0 0 .2.19h5.22a.21.21 0 0 0 .15-.06.21.21 0 0 0 0-.14v-3.57a.19.19 0 0 0-.28-.2zm5.85-7.56-2.76-9.27a1.89 1.89 0 0 0-1.83-1.35h-1.35l.29 1.49c0 .15.06.31.1.46.09.46.17.89.25 1.31s.16.8.24 1.17l.14.71.06.34c.07.33.13.64.19.93l.11.57c0 .09 0 .18.05.27l.14.72.09.43.11.56.07.33v.16l.05.28c.13.61.19 1 .23 1.17a1.27 1.27 0 0 0 0 .18v.07a.13.13 0 0 1 0 .05 1.94 1.94 0 0 0 2 1.82h.08a1.82 1.82 0 0 0 1.41-.76 1.85 1.85 0 0 0 .18-1.65zm0 0-2.76-9.27a1.89 1.89 0 0 0-1.83-1.35h-1.35l.29 1.49c0 .15.06.31.1.46.09.46.17.89.25 1.31s.16.8.24 1.17l.14.71.06.34c.07.33.13.64.19.93l.11.57c0 .09 0 .18.05.27l.14.72.09.43.11.56.07.33v.16l.05.28c.13.61.19 1 .23 1.17a1.27 1.27 0 0 0 0 .18v.07a.13.13 0 0 1 0 .05 1.94 1.94 0 0 0 2 1.82h.08a1.82 1.82 0 0 0 1.41-.76 1.85 1.85 0 0 0 .18-1.65zm-5.85 7.56h-5.24a.26.26 0 0 0-.14.05.26.26 0 0 0-.06.15v3.57a.2.2 0 0 0 .2.19h5.22a.21.21 0 0 0 .15-.06.21.21 0 0 0 0-.14v-3.57a.19.19 0 0 0-.28-.2zm0 0h-5.24a.26.26 0 0 0-.14.05.26.26 0 0 0-.06.15v3.57a.2.2 0 0 0 .2.19h5.22a.21.21 0 0 0 .15-.06.21.21 0 0 0 0-.14v-3.57a.19.19 0 0 0-.28-.2zm1.2-3.41a4.79 4.79 0 0 1-2.88 1 4.76 4.76 0 0 0-5.76 0 4.72 4.72 0 0 1-2.87-1 4.82 4.82 0 0 1-2.89 1 4.72 4.72 0 0 1-2.88-1 4.66 4.66 0 0 1-2.07.91v10.32a.51.51 0 0 0 .52.51h.76a.25.25 0 0 0 .26-.26V29.1a2.1 2.1 0 0 1 2.12-2.08h3.3a2.1 2.1 0 0 1 2.12 2.08v7.42a.26.26 0 0 0 .26.26h11.56a.51.51 0 0 0 .52-.51V25.95a4.75 4.75 0 0 1-2.22-.85zm.83 7.18a2 2 0 0 1-.6 1.42 2 2 0 0 1-1.43.59h-5.23a2 2 0 0 1-2-2v-3.57a2 2 0 0 1 .6-1.42 2 2 0 0 1 1.44-.59h5.24a2 2 0 0 1 2 2zm-2-3.77h-5.24a.26.26 0 0 0-.14.05.26.26 0 0 0-.06.15v3.57a.2.2 0 0 0 .2.19h5.22a.21.21 0 0 0 .15-.06.21.21 0 0 0 0-.14v-3.57a.19.19 0 0 0-.31-.2zm0 0h-5.24a.26.26 0 0 0-.14.05.26.26 0 0 0-.06.15v3.57a.2.2 0 0 0 .2.19h5.22a.21.21 0 0 0 .15-.06.21.21 0 0 0 0-.14v-3.57a.19.19 0 0 0-.31-.2zm.22-7.17c0-.17-.08-.4-.14-.67s-.07-.37-.12-.59l-.13-.69c0-.12-.05-.24-.07-.37-.09-.43-.18-.91-.28-1.4l-.2-1c-.11-.52-.21-1.06-.32-1.6s-.19-1-.29-1.44c-.22-1.13-.43-2.22-.62-3.17a.43.43 0 0 0 0-.05h-2.59l.67 11a.19.19 0 0 0 0 .08 2 2 0 0 0 2 1.9 1.93 1.93 0 0 0 1.94-1.74c0-.06-.02-.15-.03-.27zm-.22 7.17h-5.24a.26.26 0 0 0-.14.05.26.26 0 0 0-.06.15v3.57a.2.2 0 0 0 .2.19h5.22a.21.21 0 0 0 .15-.06.21.21 0 0 0 0-.14v-3.57a.19.19 0 0 0-.31-.2zm-6.16-18.18h-2.52l-.86 11.15a1.92 1.92 0 0 0 2 1.86 2 2 0 0 0 2-1.9zm-6.79 0-2.21 11.17a2 2 0 0 0 3.92-.09l.71-11.1zM37 20.91l-2.76-9.27a1.89 1.89 0 0 0-1.83-1.35h-1.35l.29 1.49c0 .15.06.31.1.46.09.46.17.89.25 1.31s.16.8.24 1.17l.14.71.06.34c.07.33.13.64.19.93l.11.57c0 .09 0 .18.05.27l.14.72.09.43.11.56.07.33v.16l.05.28c.13.61.19 1 .23 1.17a1.27 1.27 0 0 0 0 .18v.07a.13.13 0 0 1 0 .05 1.94 1.94 0 0 0 2 1.82h.08a1.82 1.82 0 0 0 1.41-.76 1.85 1.85 0 0 0 .15-1.65zm-5.85 7.56h-5.24a.26.26 0 0 0-.14.05.26.26 0 0 0-.06.15v3.57a.2.2 0 0 0 .2.19h5.22a.21.21 0 0 0 .15-.06.21.21 0 0 0 0-.14v-3.57a.19.19 0 0 0-.31-.2zm0 0h-5.24a.26.26 0 0 0-.14.05.26.26 0 0 0-.06.15v3.57a.2.2 0 0 0 .2.19h5.22a.21.21 0 0 0 .15-.06.21.21 0 0 0 0-.14v-3.57a.19.19 0 0 0-.31-.2zm1.2-3.41a4.79 4.79 0 0 1-2.88 1 4.76 4.76 0 0 0-5.76 0 4.72 4.72 0 0 1-2.87-1 4.82 4.82 0 0 1-2.89 1 4.72 4.72 0 0 1-2.88-1 4.66 4.66 0 0 1-2.07.91v10.32a.51.51 0 0 0 .52.51h.76a.25.25 0 0 0 .26-.26V29.1a2.1 2.1 0 0 1 2.12-2.08h3.3a2.1 2.1 0 0 1 2.12 2.08v7.42a.26.26 0 0 0 .26.26H33.9a.51.51 0 0 0 .52-.51V25.95a4.75 4.75 0 0 1-2.25-.85zm.83 7.18a2 2 0 0 1-.6 1.42 2 2 0 0 1-1.43.59h-5.23a2 2 0 0 1-2-2v-3.57a2 2 0 0 1 .6-1.42 2 2 0 0 1 1.44-.59h5.24a2 2 0 0 1 2 2zm-2-3.77h-5.24a.26.26 0 0 0-.14.05.26.26 0 0 0-.06.15v3.57a.2.2 0 0 0 .2.19h5.22a.21.21 0 0 0 .15-.06.21.21 0 0 0 0-.14v-3.57a.197.197 0 0 0-.34-.2zm0 0h-5.24a.26.26 0 0 0-.14.05.26.26 0 0 0-.06.15v3.57a.2.2 0 0 0 .2.19h5.22a.21.21 0 0 0 .15-.06.21.21 0 0 0 0-.14v-3.57a.197.197 0 0 0-.34-.2zm.22-7.17c0-.17-.08-.4-.14-.67s-.07-.37-.12-.59l-.13-.69c0-.12-.05-.24-.07-.37-.09-.43-.18-.91-.28-1.4l-.2-1c-.11-.52-.21-1.06-.32-1.6s-.19-1-.29-1.44c-.22-1.13-.43-2.22-.62-3.17a.43.43 0 0 0 0-.05h-2.62l.67 11a.19.19 0 0 0 0 .08 2 2 0 0 0 2 1.9 1.93 1.93 0 0 0 1.94-1.74c0-.06-.02-.15-.03-.27zm-.22 7.17h-5.24a.26.26 0 0 0-.14.05.26.26 0 0 0-.06.15v3.57a.2.2 0 0 0 .2.19h5.22a.21.21 0 0 0 .15-.06.21.21 0 0 0 0-.14v-3.57a.197.197 0 0 0-.34-.2zm-6.16-18.18H22.5l-.89 11.15a1.92 1.92 0 0 0 2 1.86 2 2 0 0 0 2-1.9zm-6.79 0-2.21 11.17a2 2 0 0 0 3.92-.09l.71-11.1zm0 0-2.21 11.17a2 2 0 0 0 3.92-.09l.71-11.1zm6.79 0H22.5l-.89 11.15a1.92 1.92 0 0 0 2 1.86 2 2 0 0 0 2-1.9zm6.16 18.18h-5.24a.26.26 0 0 0-.14.05.26.26 0 0 0-.06.15v3.57a.2.2 0 0 0 .2.19h5.22a.21.21 0 0 0 .15-.06.21.21 0 0 0 0-.14v-3.57a.197.197 0 0 0-.34-.2zm.22-7.17c0-.17-.08-.4-.14-.67s-.07-.37-.12-.59l-.13-.69c0-.12-.05-.24-.07-.37-.09-.43-.18-.91-.28-1.4l-.2-1c-.11-.52-.21-1.06-.32-1.6s-.19-1-.29-1.44c-.22-1.13-.43-2.22-.62-3.17a.43.43 0 0 0 0-.05h-2.62l.67 11a.19.19 0 0 0 0 .08 2 2 0 0 0 2 1.9 1.93 1.93 0 0 0 1.94-1.74c0-.06-.02-.15-.03-.27zm-.22 7.17h-5.24a.26.26 0 0 0-.14.05.26.26 0 0 0-.06.15v3.57a.2.2 0 0 0 .2.19h5.22a.21.21 0 0 0 .15-.06.21.21 0 0 0 0-.14v-3.57a.197.197 0 0 0-.34-.2zm0 0h-5.24a.26.26 0 0 0-.14.05.26.26 0 0 0-.06.15v3.57a.2.2 0 0 0 .2.19h5.22a.21.21 0 0 0 .15-.06.21.21 0 0 0 0-.14v-3.57a.197.197 0 0 0-.34-.2zm0 0h-5.24a.26.26 0 0 0-.14.05.26.26 0 0 0-.06.15v3.57a.2.2 0 0 0 .2.19h5.22a.21.21 0 0 0 .15-.06.21.21 0 0 0 0-.14v-3.57a.197.197 0 0 0-.34-.2zm1.2-3.41a4.79 4.79 0 0 1-2.88 1 4.76 4.76 0 0 0-5.76 0 4.72 4.72 0 0 1-2.87-1 4.82 4.82 0 0 1-2.89 1 4.72 4.72 0 0 1-2.88-1 4.66 4.66 0 0 1-2.07.91v10.32a.51.51 0 0 0 .52.51h.76a.25.25 0 0 0 .26-.26V29.1a2.1 2.1 0 0 1 2.12-2.08h3.3a2.1 2.1 0 0 1 2.12 2.08v7.42a.26.26 0 0 0 .26.26h11.56a.51.51 0 0 0 .52-.51V25.95a4.75 4.75 0 0 1-2.28-.85zm.83 7.18a2 2 0 0 1-.6 1.42 2 2 0 0 1-1.43.59h-5.23a2 2 0 0 1-2-2v-3.57a2 2 0 0 1 .6-1.42 2 2 0 0 1 1.44-.59h5.24a2 2 0 0 1 2 2zm-2-3.77h-5.24a.26.26 0 0 0-.14.05.26.26 0 0 0-.06.15v3.57a.2.2 0 0 0 .2.19h5.22a.21.21 0 0 0 .15-.06.21.21 0 0 0 0-.14v-3.57a.21.21 0 0 0-.37-.2zm0 0h-5.24a.26.26 0 0 0-.14.05.26.26 0 0 0-.06.15v3.57a.2.2 0 0 0 .2.19h5.22a.21.21 0 0 0 .15-.06.21.21 0 0 0 0-.14v-3.57a.21.21 0 0 0-.37-.2zm0 0h-5.24a.26.26 0 0 0-.14.05.26.26 0 0 0-.06.15v3.57a.2.2 0 0 0 .2.19h5.22a.21.21 0 0 0 .15-.06.21.21 0 0 0 0-.14v-3.57a.21.21 0 0 0-.37-.2zm5.85-7.56-2.76-9.27a1.89 1.89 0 0 0-1.83-1.35h-1.35l.29 1.49c0 .15.06.31.1.46.09.46.17.89.25 1.31s.16.8.24 1.17l.14.71.06.34c.07.33.13.64.19.93l.11.57c0 .09 0 .18.05.27l.14.72.09.43.11.56.07.33v.16l.05.28c.13.61.19 1 .23 1.17a1.27 1.27 0 0 0 0 .18v.07a.13.13 0 0 1 0 .05 1.94 1.94 0 0 0 2 1.82h.08a1.82 1.82 0 0 0 1.41-.76 1.85 1.85 0 0 0 .09-1.65zm0 0-2.76-9.27a1.89 1.89 0 0 0-1.83-1.35h-1.35l.29 1.49c0 .15.06.31.1.46.09.46.17.89.25 1.31s.16.8.24 1.17l.14.71.06.34c.07.33.13.64.19.93l.11.57c0 .09 0 .18.05.27l.14.72.09.43.11.56.07.33v.16l.05.28c.13.61.19 1 .23 1.17a1.27 1.27 0 0 0 0 .18v.07a.13.13 0 0 1 0 .05 1.94 1.94 0 0 0 2 1.82h.08a1.82 1.82 0 0 0 1.41-.76 1.85 1.85 0 0 0 .09-1.65zm-5.85 7.56h-5.24a.26.26 0 0 0-.14.05.26.26 0 0 0-.06.15v3.57a.2.2 0 0 0 .2.19h5.22a.21.21 0 0 0 .15-.06.21.21 0 0 0 0-.14v-3.57a.21.21 0 0 0-.37-.2zm0 0h-5.24a.26.26 0 0 0-.14.05.26.26 0 0 0-.06.15v3.57a.2.2 0 0 0 .2.19h5.22a.21.21 0 0 0 .15-.06.21.21 0 0 0 0-.14v-3.57a.21.21 0 0 0-.37-.2zm0 0h-5.24a.26.26 0 0 0-.14.05.26.26 0 0 0-.06.15v3.57a.2.2 0 0 0 .2.19h5.22a.21.21 0 0 0 .15-.06.21.21 0 0 0 0-.14v-3.57a.21.21 0 0 0-.37-.2zm0 0h-5.24a.26.26 0 0 0-.14.05.26.26 0 0 0-.06.15v3.57a.2.2 0 0 0 .2.19h5.22a.21.21 0 0 0 .15-.06.21.21 0 0 0 0-.14v-3.57a.21.21 0 0 0-.37-.2zm1.2-3.41a4.79 4.79 0 0 1-2.88 1 4.76 4.76 0 0 0-5.76 0 4.72 4.72 0 0 1-2.87-1 4.82 4.82 0 0 1-2.89 1 4.72 4.72 0 0 1-2.88-1 4.66 4.66 0 0 1-2.07.91v10.32a.51.51 0 0 0 .52.51h.76a.25.25 0 0 0 .26-.26V29.1a2.1 2.1 0 0 1 2.12-2.08h3.3a2.1 2.1 0 0 1 2.12 2.08v7.42a.26.26 0 0 0 .26.26h11.56a.51.51 0 0 0 .52-.51V25.95a4.75 4.75 0 0 1-2.31-.85zm.83 7.18a2 2 0 0 1-.6 1.42 2 2 0 0 1-1.43.59h-5.23a2 2 0 0 1-2-2v-3.57a2 2 0 0 1 .6-1.42 2 2 0 0 1 1.44-.59h5.24a2 2 0 0 1 2 2zm-2-3.77H26a.26.26 0 0 0-.14.05.26.26 0 0 0-.06.15v3.57a.2.2 0 0 0 .2.19h5.22a.21.21 0 0 0 .15-.06.21.21 0 0 0 0-.14v-3.57a.224.224 0 0 0-.4-.2zm0 0H26a.26.26 0 0 0-.14.05.26.26 0 0 0-.06.15v3.57a.2.2 0 0 0 .2.19h5.22a.21.21 0 0 0 .15-.06.21.21 0 0 0 0-.14v-3.57a.224.224 0 0 0-.4-.2zm0 0H26a.26.26 0 0 0-.14.05.26.26 0 0 0-.06.15v3.57a.2.2 0 0 0 .2.19h5.22a.21.21 0 0 0 .15-.06.21.21 0 0 0 0-.14v-3.57a.224.224 0 0 0-.4-.2zm0 0H26a.26.26 0 0 0-.14.05.26.26 0 0 0-.06.15v3.57a.2.2 0 0 0 .2.19h5.22a.21.21 0 0 0 .15-.06.21.21 0 0 0 0-.14v-3.57a.224.224 0 0 0-.4-.2zm.22-7.17c0-.17-.08-.4-.14-.67s-.07-.37-.12-.59l-.13-.69c0-.12-.05-.24-.07-.37-.09-.43-.18-.91-.28-1.4l-.2-1c-.11-.52-.21-1.06-.32-1.6s-.19-1-.29-1.44c-.22-1.13-.43-2.22-.62-3.17a.43.43 0 0 0 0-.05h-2.68l.67 11a.19.19 0 0 0 0 .08 2 2 0 0 0 2 1.9 1.93 1.93 0 0 0 1.94-1.74c0-.06-.02-.15-.03-.27zm-.22 7.17H26a.26.26 0 0 0-.14.05.26.26 0 0 0-.06.15v3.57a.2.2 0 0 0 .2.19h5.22a.21.21 0 0 0 .15-.06.21.21 0 0 0 0-.14v-3.57a.224.224 0 0 0-.4-.2zm-6.16-18.18h-2.52l-.95 11.15a1.92 1.92 0 0 0 2 1.86 2 2 0 0 0 2-1.9zm-6.79 0-2.21 11.17a2 2 0 0 0 3.92-.09l.71-11.1zm0 0-2.21 11.17a2 2 0 0 0 3.92-.09l.71-11.1zm6.79 0h-2.52l-.95 11.15a1.92 1.92 0 0 0 2 1.86 2 2 0 0 0 2-1.9zm6.16 18.18H26a.26.26 0 0 0-.14.05.26.26 0 0 0-.06.15v3.57a.2.2 0 0 0 .2.19h5.22a.21.21 0 0 0 .15-.06.21.21 0 0 0 0-.14v-3.57a.224.224 0 0 0-.4-.2zm.22-7.17c0-.17-.08-.4-.14-.67s-.07-.37-.12-.59l-.13-.69c0-.12-.05-.24-.07-.37-.09-.43-.18-.91-.28-1.4l-.2-1c-.11-.52-.21-1.06-.32-1.6s-.19-1-.29-1.44c-.22-1.13-.43-2.22-.62-3.17a.43.43 0 0 0 0-.05h-2.68l.67 11a.19.19 0 0 0 0 .08 2 2 0 0 0 2 1.9 1.93 1.93 0 0 0 1.94-1.74c0-.06-.02-.15-.03-.27zm-.22 7.17H26a.26.26 0 0 0-.14.05.26.26 0 0 0-.06.15v3.57a.2.2 0 0 0 .2.19h5.22a.21.21 0 0 0 .15-.06.21.21 0 0 0 0-.14v-3.57a.224.224 0 0 0-.4-.2zm0 0H26a.26.26 0 0 0-.14.05.26.26 0 0 0-.06.15v3.57a.2.2 0 0 0 .2.19h5.22a.21.21 0 0 0 .15-.06.21.21 0 0 0 0-.14v-3.57a.224.224 0 0 0-.4-.2zm0 0H26a.26.26 0 0 0-.14.05.26.26 0 0 0-.06.15v3.57a.2.2 0 0 0 .2.19h5.22a.21.21 0 0 0 .15-.06.21.21 0 0 0 0-.14v-3.57a.224.224 0 0 0-.4-.2zm0 0H26a.26.26 0 0 0-.14.05.26.26 0 0 0-.06.15v3.57a.2.2 0 0 0 .2.19h5.22a.21.21 0 0 0 .15-.06.21.21 0 0 0 0-.14v-3.57a.224.224 0 0 0-.4-.2zm0 0H26a.26.26 0 0 0-.14.05.26.26 0 0 0-.06.15v3.57a.2.2 0 0 0 .2.19h5.22a.21.21 0 0 0 .15-.06.21.21 0 0 0 0-.14v-3.57a.224.224 0 0 0-.4-.2zm1.2-3.41a4.79 4.79 0 0 1-2.88 1 4.76 4.76 0 0 0-5.76 0 4.72 4.72 0 0 1-2.87-1 4.82 4.82 0 0 1-2.89 1 4.72 4.72 0 0 1-2.88-1 4.66 4.66 0 0 1-2.07.91v10.32a.51.51 0 0 0 .52.51h.76a.25.25 0 0 0 .26-.26V29.1a2.1 2.1 0 0 1 2.12-2.08h3.3a2.1 2.1 0 0 1 2.12 2.08v7.42a.26.26 0 0 0 .26.26h11.56a.51.51 0 0 0 .52-.51V25.95a4.75 4.75 0 0 1-2.34-.85zm.83 7.18a2 2 0 0 1-.6 1.42 2 2 0 0 1-1.43.59h-5.23a2 2 0 0 1-2-2v-3.57a2 2 0 0 1 .6-1.42 2 2 0 0 1 1.44-.59h5.24a2 2 0 0 1 2 2zm-2-3.77h-5.24a.26.26 0 0 0-.14.05.26.26 0 0 0-.06.15v3.57a.2.2 0 0 0 .2.19h5.22a.21.21 0 0 0 .15-.06.21.21 0 0 0 0-.14v-3.57a.237.237 0 0 0-.43-.2zm0 0h-5.24a.26.26 0 0 0-.14.05.26.26 0 0 0-.06.15v3.57a.2.2 0 0 0 .2.19h5.22a.21.21 0 0 0 .15-.06.21.21 0 0 0 0-.14v-3.57a.237.237 0 0 0-.43-.2zm0 0h-5.24a.26.26 0 0 0-.14.05.26.26 0 0 0-.06.15v3.57a.2.2 0 0 0 .2.19h5.22a.21.21 0 0 0 .15-.06.21.21 0 0 0 0-.14v-3.57a.237.237 0 0 0-.43-.2zm0 0h-5.24a.26.26 0 0 0-.14.05.26.26 0 0 0-.06.15v3.57a.2.2 0 0 0 .2.19h5.22a.21.21 0 0 0 .15-.06.21.21 0 0 0 0-.14v-3.57a.237.237 0 0 0-.43-.2zm0 0h-5.24a.26.26 0 0 0-.14.05.26.26 0 0 0-.06.15v3.57a.2.2 0 0 0 .2.19h5.22a.21.21 0 0 0 .15-.06.21.21 0 0 0 0-.14v-3.57a.237.237 0 0 0-.43-.2zm5.85-7.56-2.76-9.27a1.89 1.89 0 0 0-1.83-1.35h-1.35l.29 1.49c0 .15.06.31.1.46.09.46.17.89.25 1.31s.16.8.24 1.17l.14.71.06.34c.07.33.13.64.19.93l.11.57c0 .09 0 .18.05.27l.14.72.09.43.11.56.07.33v.16l.05.28c.13.61.19 1 .23 1.17a1.27 1.27 0 0 0 0 .18v.07a.13.13 0 0 1 0 .05 1.94 1.94 0 0 0 2 1.82h.08a1.82 1.82 0 0 0 1.41-.76 1.85 1.85 0 0 0 .03-1.65zm0 0-2.76-9.27a1.89 1.89 0 0 0-1.83-1.35h-1.35l.29 1.49c0 .15.06.31.1.46.09.46.17.89.25 1.31s.16.8.24 1.17l.14.71.06.34c.07.33.13.64.19.93l.11.57c0 .09 0 .18.05.27l.14.72.09.43.11.56.07.33v.16l.05.28c.13.61.19 1 .23 1.17a1.27 1.27 0 0 0 0 .18v.07a.13.13 0 0 1 0 .05 1.94 1.94 0 0 0 2 1.82h.08a1.82 1.82 0 0 0 1.41-.76 1.85 1.85 0 0 0 .03-1.65zm-5.85 7.56h-5.24a.26.26 0 0 0-.14.05.26.26 0 0 0-.06.15v3.57a.2.2 0 0 0 .2.19h5.22a.21.21 0 0 0 .15-.06.21.21 0 0 0 0-.14v-3.57a.237.237 0 0 0-.43-.2zm0 0h-5.24a.26.26 0 0 0-.14.05.26.26 0 0 0-.06.15v3.57a.2.2 0 0 0 .2.19h5.22a.21.21 0 0 0 .15-.06.21.21 0 0 0 0-.14v-3.57a.237.237 0 0 0-.43-.2zm0 0h-5.24a.26.26 0 0 0-.14.05.26.26 0 0 0-.06.15v3.57a.2.2 0 0 0 .2.19h5.22a.21.21 0 0 0 .15-.06.21.21 0 0 0 0-.14v-3.57a.237.237 0 0 0-.43-.2zm0 0h-5.24a.26.26 0 0 0-.14.05.26.26 0 0 0-.06.15v3.57a.2.2 0 0 0 .2.19h5.22a.21.21 0 0 0 .15-.06.21.21 0 0 0 0-.14v-3.57a.237.237 0 0 0-.43-.2zm0 0h-5.24a.26.26 0 0 0-.14.05.26.26 0 0 0-.06.15v3.57a.2.2 0 0 0 .2.19h5.22a.21.21 0 0 0 .15-.06.21.21 0 0 0 0-.14v-3.57a.237.237 0 0 0-.43-.2zm0 0h-5.24a.26.26 0 0 0-.14.05.26.26 0 0 0-.06.15v3.57a.2.2 0 0 0 .2.19h5.22a.21.21 0 0 0 .15-.06.21.21 0 0 0 0-.14v-3.57a.237.237 0 0 0-.43-.2zm1.2-3.41a4.79 4.79 0 0 1-2.88 1 4.76 4.76 0 0 0-5.76 0 4.72 4.72 0 0 1-2.87-1 4.82 4.82 0 0 1-2.89 1 4.72 4.72 0 0 1-2.88-1 4.66 4.66 0 0 1-2.07.91v10.32a.51.51 0 0 0 .52.51h.76a.25.25 0 0 0 .26-.26V29.1a2.1 2.1 0 0 1 2.12-2.08h3.3a2.1 2.1 0 0 1 2.12 2.08v7.42a.26.26 0 0 0 .26.26h11.56a.51.51 0 0 0 .52-.51V25.95a4.75 4.75 0 0 1-2.37-.85zm.83 7.18a2 2 0 0 1-.6 1.42 2 2 0 0 1-1.43.59h-5.23a2 2 0 0 1-2-2v-3.57a2 2 0 0 1 .6-1.42 2 2 0 0 1 1.44-.59h5.24a2 2 0 0 1 2 2zm-2-3.77h-5.24a.26.26 0 0 0-.14.05.26.26 0 0 0-.06.15v3.57a.2.2 0 0 0 .2.19h5.22a.21.21 0 0 0 .15-.06.21.21 0 0 0 0-.14v-3.57a.25.25 0 0 0-.46-.2zm0 0h-5.24a.26.26 0 0 0-.14.05.26.26 0 0 0-.06.15v3.57a.2.2 0 0 0 .2.19h5.22a.21.21 0 0 0 .15-.06.21.21 0 0 0 0-.14v-3.57a.25.25 0 0 0-.46-.2zm0 0h-5.24a.26.26 0 0 0-.14.05.26.26 0 0 0-.06.15v3.57a.2.2 0 0 0 .2.19h5.22a.21.21 0 0 0 .15-.06.21.21 0 0 0 0-.14v-3.57a.25.25 0 0 0-.46-.2zm0 0h-5.24a.26.26 0 0 0-.14.05.26.26 0 0 0-.06.15v3.57a.2.2 0 0 0 .2.19h5.22a.21.21 0 0 0 .15-.06.21.21 0 0 0 0-.14v-3.57a.25.25 0 0 0-.46-.2zm0 0h-5.24a.26.26 0 0 0-.14.05.26.26 0 0 0-.06.15v3.57a.2.2 0 0 0 .2.19h5.22a.21.21 0 0 0 .15-.06.21.21 0 0 0 0-.14v-3.57a.25.25 0 0 0-.46-.2zm0 0h-5.24a.26.26 0 0 0-.14.05.26.26 0 0 0-.06.15v3.57a.2.2 0 0 0 .2.19h5.22a.21.21 0 0 0 .15-.06.21.21 0 0 0 0-.14v-3.57a.25.25 0 0 0-.46-.2zm.22-7.17c0-.17-.08-.4-.14-.67s-.07-.37-.12-.59l-.13-.69c0-.12-.05-.24-.07-.37-.09-.43-.18-.91-.28-1.4l-.2-1c-.11-.52-.21-1.06-.32-1.6s-.19-1-.29-1.44c-.22-1.13-.43-2.22-.62-3.17a.43.43 0 0 0 0-.05h-2.74l.67 11a.19.19 0 0 0 0 .08 2 2 0 0 0 2 1.9 1.93 1.93 0 0 0 1.94-1.74c0-.06-.02-.15-.03-.27zm-.22 7.17h-5.24a.26.26 0 0 0-.14.05.26.26 0 0 0-.06.15v3.57a.2.2 0 0 0 .2.19h5.22a.21.21 0 0 0 .15-.06.21.21 0 0 0 0-.14v-3.57a.25.25 0 0 0-.46-.2zm-6.16-18.18h-2.52l-1.01 11.15a1.92 1.92 0 0 0 2 1.86 2 2 0 0 0 2-1.9zm-6.79 0-2.21 11.17a2 2 0 0 0 3.92-.09l.71-11.1zm0 0-2.21 11.17a2 2 0 0 0 3.92-.09l.71-11.1zm6.79 0h-2.52l-1.01 11.15a1.92 1.92 0 0 0 2 1.86 2 2 0 0 0 2-1.9zm6.16 18.18h-5.24a.26.26 0 0 0-.14.05.26.26 0 0 0-.06.15v3.57a.2.2 0 0 0 .2.19h5.22a.21.21 0 0 0 .15-.06.21.21 0 0 0 0-.14v-3.57a.25.25 0 0 0-.46-.2zm.22-7.17c0-.17-.08-.4-.14-.67s-.07-.37-.12-.59l-.13-.69c0-.12-.05-.24-.07-.37-.09-.43-.18-.91-.28-1.4l-.2-1c-.11-.52-.21-1.06-.32-1.6s-.19-1-.29-1.44c-.22-1.13-.43-2.22-.62-3.17a.43.43 0 0 0 0-.05h-2.74l.67 11a.19.19 0 0 0 0 .08 2 2 0 0 0 2 1.9 1.93 1.93 0 0 0 1.94-1.74c0-.06-.02-.15-.03-.27zm-.22 7.17h-5.24a.26.26 0 0 0-.14.05.26.26 0 0 0-.06.15v3.57a.2.2 0 0 0 .2.19h5.22a.21.21 0 0 0 .15-.06.21.21 0 0 0 0-.14v-3.57a.25.25 0 0 0-.46-.2zm0 0h-5.24a.26.26 0 0 0-.14.05.26.26 0 0 0-.06.15v3.57a.2.2 0 0 0 .2.19h5.22a.21.21 0 0 0 .15-.06.21.21 0 0 0 0-.14v-3.57a.25.25 0 0 0-.46-.2zm0 0h-5.24a.26.26 0 0 0-.14.05.26.26 0 0 0-.06.15v3.57a.2.2 0 0 0 .2.19h5.22a.21.21 0 0 0 .15-.06.21.21 0 0 0 0-.14v-3.57a.25.25 0 0 0-.46-.2zm0 0h-5.24a.26.26 0 0 0-.14.05.26.26 0 0 0-.06.15v3.57a.2.2 0 0 0 .2.19h5.22a.21.21 0 0 0 .15-.06.21.21 0 0 0 0-.14v-3.57a.25.25 0 0 0-.46-.2zm0 0h-5.24a.26.26 0 0 0-.14.05.26.26 0 0 0-.06.15v3.57a.2.2 0 0 0 .2.19h5.22a.21.21 0 0 0 .15-.06.21.21 0 0 0 0-.14v-3.57a.25.25 0 0 0-.46-.2zm0 0h-5.24a.26.26 0 0 0-.14.05.26.26 0 0 0-.06.15v3.57a.2.2 0 0 0 .2.19h5.22a.21.21 0 0 0 .15-.06.21.21 0 0 0 0-.14v-3.57a.25.25 0 0 0-.46-.2zm0 0h-5.24a.26.26 0 0 0-.14.05.26.26 0 0 0-.06.15v3.57a.2.2 0 0 0 .2.19h5.22a.21.21 0 0 0 .15-.06.21.21 0 0 0 0-.14v-3.57a.25.25 0 0 0-.46-.2zm1.2-3.41a4.79 4.79 0 0 1-2.88 1 4.76 4.76 0 0 0-5.76 0 4.72 4.72 0 0 1-2.87-1 4.82 4.82 0 0 1-2.89 1 4.72 4.72 0 0 1-2.88-1 4.66 4.66 0 0 1-2.07.91v10.32a.51.51 0 0 0 .52.51h.76a.25.25 0 0 0 .26-.26V29.1a2.1 2.1 0 0 1 2.12-2.08h3.3a2.1 2.1 0 0 1 2.12 2.08v7.42a.26.26 0 0 0 .26.26h11.56a.51.51 0 0 0 .52-.51V25.95a4.75 4.75 0 0 1-2.4-.85zm.83 7.18a2 2 0 0 1-.6 1.42 2 2 0 0 1-1.43.59h-5.23a2 2 0 0 1-2-2v-3.57a2 2 0 0 1 .6-1.42 2 2 0 0 1 1.44-.59h5.24a2 2 0 0 1 2 2zm-2-3.77h-5.24a.26.26 0 0 0-.14.05.26.26 0 0 0-.06.15v3.57a.2.2 0 0 0 .2.19h5.22a.21.21 0 0 0 .15-.06.21.21 0 0 0 0-.14v-3.57a.265.265 0 0 0-.49-.2zm0 0h-5.24a.26.26 0 0 0-.14.05.26.26 0 0 0-.06.15v3.57a.2.2 0 0 0 .2.19h5.22a.21.21 0 0 0 .15-.06.21.21 0 0 0 0-.14v-3.57a.265.265 0 0 0-.49-.2zm0 0h-5.24a.26.26 0 0 0-.14.05.26.26 0 0 0-.06.15v3.57a.2.2 0 0 0 .2.19h5.22a.21.21 0 0 0 .15-.06.21.21 0 0 0 0-.14v-3.57a.265.265 0 0 0-.49-.2zm0 0h-5.24a.26.26 0 0 0-.14.05.26.26 0 0 0-.06.15v3.57a.2.2 0 0 0 .2.19h5.22a.21.21 0 0 0 .15-.06.21.21 0 0 0 0-.14v-3.57a.265.265 0 0 0-.49-.2zm0 0h-5.24a.26.26 0 0 0-.14.05.26.26 0 0 0-.06.15v3.57a.2.2 0 0 0 .2.19h5.22a.21.21 0 0 0 .15-.06.21.21 0 0 0 0-.14v-3.57a.265.265 0 0 0-.49-.2zm0 0h-5.24a.26.26 0 0 0-.14.05.26.26 0 0 0-.06.15v3.57a.2.2 0 0 0 .2.19h5.22a.21.21 0 0 0 .15-.06.21.21 0 0 0 0-.14v-3.57a.265.265 0 0 0-.49-.2zm0 0h-5.24a.26.26 0 0 0-.14.05.26.26 0 0 0-.06.15v3.57a.2.2 0 0 0 .2.19h5.22a.21.21 0 0 0 .15-.06.21.21 0 0 0 0-.14v-3.57a.265.265 0 0 0-.49-.2zm5.85-7.56-2.76-9.27a1.89 1.89 0 0 0-1.83-1.35h-1.35l.29 1.49c0 .15.06.31.1.46.09.46.17.89.25 1.31s.16.8.24 1.17l.14.71.06.34c.07.33.13.64.19.93l.11.57c0 .09 0 .18.05.27l.14.72.09.43.11.56.07.33v.16l.05.28c.13.61.19 1 .23 1.17a1.27 1.27 0 0 0 0 .18v.07a.13.13 0 0 1 0 .05 1.94 1.94 0 0 0 2 1.82h.08a1.82 1.82 0 0 0 1.41-.76 1.85 1.85 0 0 0-.03-1.65zm0 0-2.76-9.27a1.89 1.89 0 0 0-1.83-1.35h-1.35l.29 1.49c0 .15.06.31.1.46.09.46.17.89.25 1.31s.16.8.24 1.17l.14.71.06.34c.07.33.13.64.19.93l.11.57c0 .09 0 .18.05.27l.14.72.09.43.11.56.07.33v.16l.05.28c.13.61.19 1 .23 1.17a1.27 1.27 0 0 0 0 .18v.07a.13.13 0 0 1 0 .05 1.94 1.94 0 0 0 2 1.82h.08a1.82 1.82 0 0 0 1.41-.76 1.85 1.85 0 0 0-.03-1.65zm-5.85 7.56h-5.24a.26.26 0 0 0-.14.05.26.26 0 0 0-.06.15v3.57a.2.2 0 0 0 .2.19h5.22a.21.21 0 0 0 .15-.06.21.21 0 0 0 0-.14v-3.57a.265.265 0 0 0-.49-.2zm0 0h-5.24a.26.26 0 0 0-.14.05.26.26 0 0 0-.06.15v3.57a.2.2 0 0 0 .2.19h5.22a.21.21 0 0 0 .15-.06.21.21 0 0 0 0-.14v-3.57a.265.265 0 0 0-.49-.2zm0 0h-5.24a.26.26 0 0 0-.14.05.26.26 0 0 0-.06.15v3.57a.2.2 0 0 0 .2.19h5.22a.21.21 0 0 0 .15-.06.21.21 0 0 0 0-.14v-3.57a.265.265 0 0 0-.49-.2zm0 0h-5.24a.26.26 0 0 0-.14.05.26.26 0 0 0-.06.15v3.57a.2.2 0 0 0 .2.19h5.22a.21.21 0 0 0 .15-.06.21.21 0 0 0 0-.14v-3.57a.265.265 0 0 0-.49-.2zm0 0h-5.24a.26.26 0 0 0-.14.05.26.26 0 0 0-.06.15v3.57a.2.2 0 0 0 .2.19h5.22a.21.21 0 0 0 .15-.06.21.21 0 0 0 0-.14v-3.57a.265.265 0 0 0-.49-.2zm0 0h-5.24a.26.26 0 0 0-.14.05.26.26 0 0 0-.06.15v3.57a.2.2 0 0 0 .2.19h5.22a.21.21 0 0 0 .15-.06.21.21 0 0 0 0-.14v-3.57a.265.265 0 0 0-.49-.2zm0 0h-5.24a.26.26 0 0 0-.14.05.26.26 0 0 0-.06.15v3.57a.2.2 0 0 0 .2.19h5.22a.21.21 0 0 0 .15-.06.21.21 0 0 0 0-.14v-3.57a.265.265 0 0 0-.49-.2zm0 0h-5.24a.26.26 0 0 0-.14.05.26.26 0 0 0-.06.15v3.57a.2.2 0 0 0 .2.19h5.22a.21.21 0 0 0 .15-.06.21.21 0 0 0 0-.14v-3.57a.265.265 0 0 0-.49-.2zm1.2-3.41a4.79 4.79 0 0 1-2.88 1 4.76 4.76 0 0 0-5.76 0 4.72 4.72 0 0 1-2.87-1 4.82 4.82 0 0 1-2.89 1 4.72 4.72 0 0 1-2.88-1 4.66 4.66 0 0 1-2.07.91v10.32a.51.51 0 0 0 .52.51h.76a.25.25 0 0 0 .26-.26V29.1a2.1 2.1 0 0 1 2.12-2.08h3.3a2.1 2.1 0 0 1 2.12 2.08v7.42a.26.26 0 0 0 .26.26h11.56a.51.51 0 0 0 .52-.51V25.95a4.75 4.75 0 0 1-2.43-.85zm.83 7.18a2 2 0 0 1-.6 1.42 2 2 0 0 1-1.43.59H26.1a2 2 0 0 1-2-2v-3.57a2 2 0 0 1 .6-1.42 2 2 0 0 1 1.44-.59h5.24a2 2 0 0 1 2 2zm-2-3.77h-5.24a.26.26 0 0 0-.14.05.26.26 0 0 0-.06.15v3.57a.2.2 0 0 0 .2.19h5.22a.21.21 0 0 0 .15-.06.21.21 0 0 0 0-.14v-3.57a.279.279 0 0 0-.52-.2zm0 0h-5.24a.26.26 0 0 0-.14.05.26.26 0 0 0-.06.15v3.57a.2.2 0 0 0 .2.19h5.22a.21.21 0 0 0 .15-.06.21.21 0 0 0 0-.14v-3.57a.279.279 0 0 0-.52-.2zm0 0h-5.24a.26.26 0 0 0-.14.05.26.26 0 0 0-.06.15v3.57a.2.2 0 0 0 .2.19h5.22a.21.21 0 0 0 .15-.06.21.21 0 0 0 0-.14v-3.57a.279.279 0 0 0-.52-.2zm0 0h-5.24a.26.26 0 0 0-.14.05.26.26 0 0 0-.06.15v3.57a.2.2 0 0 0 .2.19h5.22a.21.21 0 0 0 .15-.06.21.21 0 0 0 0-.14v-3.57a.279.279 0 0 0-.52-.2zm0 0h-5.24a.26.26 0 0 0-.14.05.26.26 0 0 0-.06.15v3.57a.2.2 0 0 0 .2.19h5.22a.21.21 0 0 0 .15-.06.21.21 0 0 0 0-.14v-3.57a.279.279 0 0 0-.52-.2zm0 0h-5.24a.26.26 0 0 0-.14.05.26.26 0 0 0-.06.15v3.57a.2.2 0 0 0 .2.19h5.22a.21.21 0 0 0 .15-.06.21.21 0 0 0 0-.14v-3.57a.279.279 0 0 0-.52-.2zm0 0h-5.24a.26.26 0 0 0-.14.05.26.26 0 0 0-.06.15v3.57a.2.2 0 0 0 .2.19h5.22a.21.21 0 0 0 .15-.06.21.21 0 0 0 0-.14v-3.57a.279.279 0 0 0-.52-.2zm.22-7.17c0-.17-.08-.4-.14-.67s-.07-.37-.12-.59l-.13-.69c0-.12-.05-.24-.07-.37-.09-.43-.18-.91-.28-1.4l-.2-1c-.11-.52-.21-1.06-.32-1.6s-.19-1-.29-1.44c-.22-1.13-.43-2.22-.62-3.17a.43.43 0 0 0 0-.05h-2.8l.67 11a.19.19 0 0 0 0 .08 2 2 0 0 0 2 1.9 1.93 1.93 0 0 0 1.94-1.74c0-.06-.02-.15-.03-.27zm-6.38-11h-2.52l-1.07 11.14a1.92 1.92 0 0 0 2 1.86 2 2 0 0 0 2-1.9zm-6.79 0L16.2 21.47a2 2 0 0 0 3.92-.09l.71-11.1zm0 0L16.2 21.47a2 2 0 0 0 3.92-.09l.71-11.1zm6.79 0h-2.52l-1.07 11.14a1.92 1.92 0 0 0 2 1.86 2 2 0 0 0 2-1.9zm6.38 11c0-.17-.08-.4-.14-.67s-.07-.37-.12-.59l-.13-.69c0-.12-.05-.24-.07-.37-.09-.43-.18-.91-.28-1.4l-.2-1c-.11-.52-.21-1.06-.32-1.6s-.19-1-.29-1.44c-.22-1.13-.43-2.22-.62-3.17a.43.43 0 0 0 0-.05h-2.8l.67 11a.19.19 0 0 0 0 .08 2 2 0 0 0 2 1.9 1.93 1.93 0 0 0 1.94-1.74c0-.06-.02-.15-.03-.27zm5.63-.39-2.76-9.27a1.89 1.89 0 0 0-1.83-1.35h-1.35l.29 1.49c0 .15.06.31.1.46.09.46.17.89.25 1.31s.16.8.24 1.17l.14.71.06.34c.07.33.13.64.19.93l.11.57c0 .09 0 .18.05.27l.14.72.09.43.11.56.07.33v.16l.05.28c.13.61.19 1 .23 1.17a1.27 1.27 0 0 0 0 .18v.07a.13.13 0 0 1 0 .05 1.94 1.94 0 0 0 2 1.82h.08a1.82 1.82 0 0 0 1.41-.76 1.85 1.85 0 0 0-.06-1.65zm0 0-2.76-9.27a1.89 1.89 0 0 0-1.83-1.35h-1.35l.29 1.49c0 .15.06.31.1.46.09.46.17.89.25 1.31s.16.8.24 1.17l.14.71.06.34c.07.33.13.64.19.93l.11.57c0 .09 0 .18.05.27l.14.72.09.43.11.56.07.33v.16l.05.28c.13.61.19 1 .23 1.17a1.27 1.27 0 0 0 0 .18v.07a.13.13 0 0 1 0 .05 1.94 1.94 0 0 0 2 1.82h.08a1.82 1.82 0 0 0 1.41-.76 1.85 1.85 0 0 0-.06-1.65zm-5.63.39c0-.17-.08-.4-.14-.67s-.07-.37-.12-.59l-.13-.69c0-.12-.05-.24-.07-.37-.09-.43-.18-.91-.28-1.4l-.2-1c-.11-.52-.21-1.06-.32-1.6s-.19-1-.29-1.44c-.22-1.13-.43-2.22-.62-3.17a.43.43 0 0 0 0-.05h-2.8l.67 11a.19.19 0 0 0 0 .08 2 2 0 0 0 2 1.9 1.93 1.93 0 0 0 1.94-1.74c0-.06-.02-.15-.03-.27zm-6.38-11h-2.52l-1.07 11.14a1.92 1.92 0 0 0 2 1.86 2 2 0 0 0 2-1.9zm-6.79 0L16.2 21.47a2 2 0 0 0 3.92-.09l.71-11.1z"></path>
    <path fill="#d10303"
        d="M45.25 14.47A23.59 23.59 0 0 0 33.38 2.16 23.53 23.53 0 0 0 1.8 32.56a23.533 23.533 0 1 0 43.45-18.09Zm-7.22 9.13a3.66 3.66 0 0 1-2 1.37s0 .09 0 .14v11.16a2.35 2.35 0 0 1-2.36 2.32H22.16a2.09 2.09 0 0 1-2.1-2.07V29.1a.27.27 0 0 0-.28-.27h-3.3a.28.28 0 0 0-.28.27v7.42a2.09 2.09 0 0 1-2.1 2.07h-.76a2.35 2.35 0 0 1-2.36-2.32V25.1a.61.61 0 0 1 0-.14 3.66 3.66 0 0 1-2-1.37 3.62 3.62 0 0 1-.56-3.21l2.75-9.27a3.76 3.76 0 0 1 3.6-2.65h17.41a3.75 3.75 0 0 1 3.6 2.65l2.76 9.27a3.68 3.68 0 0 1-.51 3.22Z"></path>
</svg>