<svg xmlns="http://www.w3.org/2000/svg" width="128" height="128" fill="none" id="car">
    <path  fill="#d10303"
        d="M64 128c35.346 0 64-28.654 64-64 0-35.346-28.654-64-64-64C28.654 0 0 28.654 0 64c0 35.346 28.654 64 64 64Z"
        filter="url(#a)"></path>
    <path fill="#fff"
        d="M98.118 57.884 94.484 41.36c-1.283-5.84-6.322-9.928-12.24-9.928h-9.292v-3.62c0-.998-.8-1.813-1.794-1.813h-14.33c-.987 0-1.794.808-1.794 1.813v3.62h-9.29c-5.926 0-10.958 4.081-12.241 9.928l-3.635 16.523C24.668 60.057 21 65.238 21 71.269c0 5.161 2.781 9.962 7.168 12.53v3.768c0 2.995 2.412 5.433 5.375 5.433h7.168c2.963 0 5.375-2.438 5.375-5.433v-1.813h35.828v1.813c0 2.995 2.412 5.433 5.375 5.433h7.168c2.963 0 5.375-2.438 5.375-5.433v-3.769c4.387-2.574 7.168-7.368 7.168-12.53a14.532 14.532 0 0 0-8.882-13.384Zm-5.461 20.63c-3.957 0-7.169-3.245-7.169-7.245s3.205-7.246 7.169-7.246c3.957 0 7.168 3.246 7.168 7.246 0 4.006-3.211 7.246-7.168 7.246ZM51.46 74.896c0-.998.8-1.813 1.794-1.813h21.498c.988 0 1.794.808 1.794 1.813s-.8 1.813-1.794 1.813H53.254a1.803 1.803 0 0 1-1.794-1.813Zm23.286-5.433H53.248a1.803 1.803 0 0 1-1.794-1.813c0-1.005.8-1.813 1.794-1.813h21.498c.987 0 1.794.808 1.794 1.813a1.803 1.803 0 0 1-1.794 1.813Zm-39.41-5.432c3.958 0 7.169 3.246 7.169 7.246s-3.211 7.246-7.168 7.246c-3.957 0-7.169-3.247-7.169-7.246 0-4 3.212-7.246 7.169-7.246Zm-1.571-7.151 3.238-14.73c.913-4.177 4.514-7.09 8.74-7.09h36.5c4.226 0 7.82 2.913 8.74 7.09l3.239 14.73h-.027a14.382 14.382 0 0 0-1.538-.089H35.33c-.517 0-1.035.034-1.538.089-.007-.007-.014-.007-.027 0Z"
        filter="url(#b)"></path>
    <defs>
        <filter id="a" width="128" height="138" x="0" y="-4" color-interpolation-filters="sRGB"
            filterUnits="userSpaceOnUse">
            <feFlood flood-opacity="0" result="BackgroundImageFix"></feFlood>
            <feBlend in="SourceGraphic" in2="BackgroundImageFix" result="shape"></feBlend>
            <feColorMatrix in="SourceAlpha" result="hardAlpha"
                values="0 0 0 0 0 0 0 0 0 0 0 0 0 0 0 0 0 0 127 0"></feColorMatrix>
            <feOffset dy="6"></feOffset>
            <feGaussianBlur stdDeviation="3"></feGaussianBlur>
            <feComposite in2="hardAlpha" k2="-1" k3="1" operator="arithmetic"></feComposite>
            <feColorMatrix values="0 0 0 0 1 0 0 0 0 1 0 0 0 0 1 0 0 0 0.6 0"></feColorMatrix>
            <feBlend in2="shape" result="effect1_innerShadow"></feBlend>
            <feColorMatrix in="SourceAlpha" result="hardAlpha"
                values="0 0 0 0 0 0 0 0 0 0 0 0 0 0 0 0 0 0 127 0"></feColorMatrix>
            <feOffset dy="-4"></feOffset>
            <feGaussianBlur stdDeviation="3"></feGaussianBlur>
            <feComposite in2="hardAlpha" k2="-1" k3="1" operator="arithmetic"></feComposite>
            <feColorMatrix values="0 0 0 0 0 0 0 0 0 0 0 0 0 0 0 0 0 0 0.15 0"></feColorMatrix>
            <feBlend in2="effect1_innerShadow" result="effect2_innerShadow"></feBlend>
        </filter>
        <filter id="b" width="100" height="81" x="14" y="21" color-interpolation-filters="sRGB"
            filterUnits="userSpaceOnUse">
            <feFlood flood-opacity="0" result="BackgroundImageFix"></feFlood>
            <feColorMatrix in="SourceAlpha" values="0 0 0 0 0 0 0 0 0 0 0 0 0 0 0 0 0 0 127 0"></feColorMatrix>
            <feOffset dy="2"></feOffset>
            <feGaussianBlur stdDeviation="3.5"></feGaussianBlur>
            <feColorMatrix values="0 0 0 0 0 0 0 0 0 0 0 0 0 0 0 0 0 0 0.25 0"></feColorMatrix>
            <feBlend in2="BackgroundImageFix" result="effect1_dropShadow"></feBlend>
            <feBlend in="SourceGraphic" in2="effect1_dropShadow" result="shape"></feBlend>
        </filter>
    </defs>
</svg>