<?xml version="1.0" encoding="UTF-8"?>
<svg version="1.1" viewBox="0 0 1024 1024" width="1280" height="1280" xmlns="http://www.w3.org/2000/svg">
<path transform="translate(358,245)" d="m0 0h178l9 3 5 5 4 7 1 5v35l16 4 30 10 23 10 22 11 17 10 16 11 12 9 16 13 13 12 11 11 9 11 10 12 9 12 77 1 43 2 31 3 23 4 20 6 16 8 11 7 10 9 10 13 8 14 5 14 4 16 3 21 4 42v104l-7 9-6 4-4 1-119 1-3 5-8 13-12 15h-2l-1 3-15 11-15 8-15 5-14 3-9 1h-11l-15-2-14-4-16-7-11-7-13-11-9-10-10-15-4-8h-358l-8 14-8 11-9 10-11 9-14 8-11 5-13 4-19 3h-12l-19-3-18-6-16-9-11-9-12-12-9-13-7-12-40-1-21-5-21-9-14-8-17-12-11-9-7-6-5-7v-167h2l2-4 9-10 34-34 9-6 3-1h77l5-5 7-10 11-13 7-8 21-21 11-9 18-14 25-16 28-15 23-10 36-12 11-3 1-1 1-37 4-9 6-5z" fill="#d10303"/>
<path transform="translate(773,566)" d="m0 0h27l20 4 15 6 13 7 13 10 12 12 10 16 7 15 5 18 1 6v23l-6 28-3 5-9 16-9 11-4 5h-2l-1 3-15 11-15 8-15 5-14 3-9 1h-11l-15-2-14-4-16-7-11-7-13-11-9-10-10-15-4-8-2-1-6-26-2-10v-10l5-24 6-16 8-15 10-13 11-11 15-10 13-6 15-5z" fill="#2A2B7E"/>
<path transform="translate(219,566)" d="m0 0h30l22 6 16 7 12 8 12 11 10 11 9 15 7 16 4 19 1 16-6 37-4 4-6 11-8 12-11 12-10 8-14 8-11 5-13 4-19 3h-12l-19-3-18-6-16-9-11-9-12-12-9-13-7-12-2-2-5-23-2-13v-11l5-24 5-13 6-12 8-12 9-10 9-8 15-9 10-5 15-5z" fill="#2A2B7E"/>
<path transform="translate(428,331)" d="m0 0h37l21 1 33 4 27 6 24 7 20 7 24 11 22 12 15 10 12 9 16 13 7 7 8 7 9 10v1h-275l-1-1v-103z" fill="#FDFDFD"/>
<path transform="translate(378,336)" d="m0 0h5l1 1v98l-1 1h-190l2-4 21-21 11-9 19-14 19-12 27-14 25-10 21-7 28-7z" fill="#FDFDFD"/>
<path transform="translate(358,245)" d="m0 0h178l9 3 5 5 4 7 1 5v34l-16-2-39-6-24-2h-60l-23 2-38 6-10 2h-4v-37l4-9 6-5z" fill="#2A2B7E"/>
<path transform="translate(414,331)" d="m0 0h13l-1 106-38 1-4-1v-101l3-2z" fill="#2A2B7F"/>
<path transform="translate(934,501)" d="m0 0h73l5 12 4 14 2 10v6h-85l-6-3-5-5-3-4-2-6 1-9 5-8 8-6z" fill="#FCFBFB"/>
<path transform="translate(59,436)" d="m0 0h27l-1 36-2 16-4 6-4 4-9 2h-66v-9h2l2-4 9-10 34-34 9-6z" fill="#d10303"/>
<path transform="translate(507,522)" d="m0 0h9l10 7 6 8 1 2v10l-5 9-8 6-5 2h-7l-8-4-7-8-4-7v-7l7-10 8-7z" fill="#2A2B7F"/>
<path transform="translate(337,522)" d="m0 0h8l10 6 5 6 1 3v14l-5 8-8 5-3 1h-9l-7-4-7-7-3-7v-9l6-9 10-6z" fill="#2A2B7F"/>
<path transform="translate(785,651)" d="m0 0h8l8 3 7 7 2 5v12l-5 8-7 6-4 1h-11l-7-4-6-7-2-6v-9l5-9 5-4z" fill="#FDFDFD"/>
<path transform="translate(231,651)" d="m0 0 11 1 9 6 4 7 1 10-3 8-5 6-5 3-4 1h-10l-8-4-6-8-2-7 1-9 6-8 7-5z" fill="#FDFDFD"/>
<path transform="translate(593,522)" d="m0 0h8l12 7 3 4 1 3v14l-4 8-8 6-3 1h-10l-9-6-6-8-2-6v-7l6-9z" fill="#2A2B7F"/>
<path transform="translate(638,565)" d="m0 0 6 1 9 5 6 7 2 4v10l-3 5-5 6-8 4-10 1-7-3-8-9-3-6 1-9 8-10 8-5z" fill="#2A2B7F"/>
<path transform="translate(678,522)" d="m0 0h7l13 8 5 6v14l-3 7-11 7-2 1h-10l-8-5-5-6-2-4v-13l4-8z" fill="#2A2B7F"/>
<path transform="translate(421,522)" d="m0 0h8l12 7 6 7v15l-4 6-11 7-9 1-10-4-6-8-1-2v-14l4-8z" fill="#2A2B7F"/>
<path transform="translate(381,565)" d="m0 0 8 1 9 6 6 8 1 2v10l-6 8-7 6-7 2-10-1-6-5-7-10-1-2v-6l6-10 7-6z" fill="#2A2B7F"/>
<path transform="translate(467,565)" d="m0 0 7 1 11 7 5 10-1 11-6 8-6 4-8 2-9-1-7-6-5-9v-11l5-8 7-6z" fill="#2A2B7F"/>
<path transform="translate(552,565)" d="m0 0 8 1 10 7 5 8v10l-4 8-7 6-5 2h-12l-6-4-6-9-1-3v-11l4-7 6-5z" fill="#2A2B7F"/>
<path transform="translate(426,333)" d="m0 0h1l1 102h274 3v3h-282l3-1z" fill="#d10303"/>
<path transform="translate(230,564)" d="m0 0 23 1 17 5 9 4-3 1-15-5-12-3h-30l-17 4-13 5-17 10-11 9-7 7-10 15-8 16-4 12-4 21v11l1 12-2-4-1-4v-16l5-24 6-17 11-18 8-10h2l1-3 13-10 11-6 16-8 17-4z" fill="#d10303"/>
<path transform="translate(416,288)" d="m0 0h60l32 3 36 6 10 1v2l-16-1-15-3-30-4-30-2h-38l-24 2-38 5-16 3h-5l3-2 21-4 27-4z" fill="#d10303"/>
<path transform="translate(637,563)" d="m0 0 7 1 8 4 5 4 5 9 1 3v7l-4 8-9 8-6 2h-10l-9-4-8-11-2-5 1-8 7-10 6-5zm1 2-10 4-8 9-3 6 1 9 9 11 5 3 9 1 9-3 6-5 4-5 1-3v-10l-6-9-5-4-9-4z" fill="#d10303"/>
<path transform="translate(593,520)" d="m0 0h8l12 7 1 3h2l2 4 1 13-2 8-6 7-9 5h-10l-8-5-7-8-3-6v-12l4-6 7-6zm0 2-12 7-6 9v7l3 8 7 8 7 4h10l9-5 5-7 1-3v-14l-3-6-9-6-4-2z" fill="#d10303"/>
<path transform="translate(338,520)" d="m0 0h7l8 4v2l4 1 5 7 1 14-2 8-8 7-7 3-8 1-8-3-5-4-6-9-2-10 3-9 2-3h2l2-4 8-4zm-1 2-11 6-6 8-1 2v9l4 8 7 7 6 3h9l10-5 4-5 2-4v-14l-3-6-7-6-6-3z" fill="#d10303"/>
<path transform="translate(678,520)" d="m0 0h7l9 5 7 5 1 4-8-6-9-5h-7l-12 7-3 7v13l5 8 5 4 4 2h10l12-7 2-1-1 3-13 8h-10l-8-4-6-7-3-6v-12l3-8 5-5z" fill="#d10303"/>
<path transform="translate(422,520)" d="m0 0h7l12 7 4 4-1 2-6-5-9-5h-8l-11 7-3 7v14l6 9 10 4 9-1 8-5h2v2l-12 6h-9l-9-4-6-8-2-5v-10l3-9 7-6z" fill="#d10303"/>
<path transform="translate(508,520)" d="m0 0h7l11 6 3 4-1 2-7-6-5-3h-9l-7 4-6 7-4 6v7l7 11 6 5-3 1-7-7-6-11v-6l8-13 5-4z" fill="#d10303"/>
<path transform="translate(381,563)" d="m0 0 8 1 9 6 5 6-1 2-6-7-10-5-8 1-8 5-6 8-2 4v6l4 6 7 9 2 2-4-1-9-11-2-4v-9l7-11 5-4z" fill="#d10303"/>
<path transform="translate(465,564)" d="m0 0h8l9 5 2 3-5-2-8-4-8 1-7 4-5 6-2 4v11l2 6-3-3-2-5v-8l4-8 4-5 8-4z" fill="#d10303"/>
<path transform="translate(553,563)" d="m0 0 9 2 6 5h-3l-8-4-9 1-8 5-4 5-1 3v11l2 7-3-3-2-5v-7l2-7 5-7 8-4z" fill="#d10303"/>
<path transform="translate(531,535)" d="m0 0 3 3 1 9-3 8-6 7-12 6-10-2-1-2 5 1h7l10-5 4-5 3-6v-10z" fill="#d10303"/>
<path transform="translate(703,536)" d="m0 0 2 2v13l-3 5-1-3 1-3z" fill="#d10303"/>
</svg>
