<?xml version="1.0" encoding="UTF-8"?>
<svg version="1.1" viewBox="0 0 1024 1024" width="1280" height="1280" xmlns="http://www.w3.org/2000/svg">
<path transform="translate(178)" d="m0 0h667l15 6 11 7 9 8 7 10 5 10 3 10 1 9 1 226 14 11 16 12 18 14 16 12 18 14 39 30 5 4 1 3v590l-8 17-11 14-14 10-16 7h-927l-17-8-9-7-11-11-6-10-5-12v-592l8-7 16-12 18-14 60-46 12-9 13-10 1-231 3-12 7-14 9-11 11-9 15-7z" fill="#2C2E85"/>
<path transform="translate(178)" d="m0 0h667l15 6 11 7 9 8 7 10 5 10 3 10 1 9 1 227-1 178-11 8-11 7-12 7-10 7-26 16-20 13-11 7-13 8-28 18-16 10-20 13-16 10-19 12-31 20-18 11-27 18-9 5-5 1-57-38-10-6-8-3h-12l-10 4-11 7-54 36-6-1-107-68-11-7-25-16-19-12-22-14-58-37-19-12-25-16-10-7-1-1-1-16v-163l1-231 3-12 7-14 9-11 11-9 15-7z" fill="#F3F5F7"/>
<path transform="translate(896,287)" d="m0 0 5 2 14 11 38 29 18 14 16 12 18 14 13 10 5 4 1 3v556l-5-1-10-7-14-9-19-13-11-7-15-10-20-13-10-7-11-7-10-7-30-20-14-9-78-52-20-14-22-14-9-6-14-9-10-7-14-9v-2l-6-2-6-4v-2l-5-2-11-8-11-7-11-8-15-9-3-3-9-5-9-6-3-3-1-6 9-5 15-10 17-11 13-8 28-18 24-15 14-9 20-13 16-10 7-5 7-4 16-10 13-8 27-18 20-12 11-7 10-7 11-6 9-6 10-7z" fill="#2B2EA9"/>
<path transform="translate(126,287)" d="m0 0h2v162l1 16 10 7 41 26 23 15 18 11 20 13 24 15 17 11 99 63 24 15 3 2v3l5 2v2h3v2l2 1 2 4 3 2v4l-12 7-14 9-19 12-17 12-9 6-4 4-11 6-14 9-14 10-10 7-11 6-17 12-21 14-11 7-15 10-10 7-12 8-10 7h-3v2l-14 8-11 8-14 9-12 8-19 13-10 7-11 7-27 18-10 7-21 14-13 9h-2v2l-13 8-10 7h-2v-559l8-7 16-12 18-14 60-46 12-9z" fill="#2B2EA9"/>
<path transform="translate(287,128)" d="m0 0h454l10 3 10 9 6 10 1 4v11l-4 10-8 10-7 5-9 2h-457l-11-4-10-9-5-10-1-3v-12l3-9 6-8 8-6 6-2z" fill="#91A5AF"/>
<path transform="translate(284,256)" d="m0 0h457l9 3 8 6 7 9 3 8v11l-4 10-8 10-10 6-6 1h-458l-10-4-10-9-5-10-1-3v-12l4-10 6-8 9-6z" fill="#91A5AF"/>
<path transform="translate(284,384)" d="m0 0h261l9 1 10 6 6 7 5 9 1 4v9l-4 10-6 8-8 7-10 3h-267l-10-5-8-7-5-8-2-6v-12l4-10 6-8 9-6z" fill="#91A5AF"/>
<path transform="translate(896,287)" d="m0 0 5 2 14 11 38 29 18 14 16 12 18 14 13 10 5 4v2l-16 9-22 14-17 11-44 28-17 11-9 5h-2z" fill="#C20F0C"/>
<path transform="translate(126,287)" d="m0 0h2v176l-4-1-14-8-37-24-11-7-25-16-18-11-11-7-7-4 2-4 21-16 18-14 60-46 12-9z" fill="#C20F0C"/>
<path transform="translate(0,384)" d="m0 0 12 6 15 10 5 3 2 2 8 4 6 4 11 7 6 4 2 2 11 6 10 7 18 11 14 9 8 4 5 5 1 2-6-2-5-1-7-3-2-2-2-1v-2l-5-2-14-7-5-3-3-3-6-2v-2l-5-2-9-6-8-7-12-6-3-2v-2l-5-1-10-5-12-4-8-4v-2l-7-2z" fill="#353889"/>
<path transform="translate(320,588)" d="m0 0 11 6 17 11 41 26 6 4-3 1-8-5-8-4h-2l-4-4-7-4-8-4v-3l-7-2-3-3-5-4-4-1v-2l-7-1v-2l-5-2-2-4-2-1z" fill="#2C2E85"/>
<path transform="translate(200,512)" d="m0 0 5 2 63 40 4 4-4-1-7-3-2-4-10-4v-2l-7-1v-3l-6-1-3-3-5-2-4-4v-2l-7-2-2-4-5-2-10-7z" fill="#2C2E85"/>
<path transform="translate(1021,385)" d="m0 0 3 1v15h-5l-1-7 2-5h-2l1-3z" fill="#2C2E85"/>
<path transform="translate(907,457)" d="m0 0v3h-2v2l-8 5-3-1 4-4z" fill="#313487"/>
</svg>
