<?xml version="1.0" encoding="UTF-8"?>
<svg version="1.1" viewBox="0 0 1024 1024" width="1280" height="1280" xmlns="http://www.w3.org/2000/svg">
<path transform="translate(54)" d="m0 0h744l16 6 10 6 10 8 9 11 7 15 3 14v298h34l14 2 10 4 8 5 6 5 7 10 5 12 2 11v19l58 1 10 4 8 6 7 11 2 5v20l-6 16-7 12-9 10-7 6-16 8-12 3-8 1h-20v22l-1 12h56l10 3 9 6 6 7 5 10v20l-5 15-9 15-9 10-10 7-13 6-14 3-25 1v33l58 1 10 4 8 7 4 5 5 10v19l-5 15-7 13-9 10-8 7-16 8-12 3-7 1-21 1v17l-2 13-5 12-8 10-8 7-10 5-15 3-21 1v126l-4 9-4 6-8 7-11 5h-83l-13-7-7-7-5-10-1-3v-41l-677-1-12-3-14-7-10-8-9-10-8-15-4-13v-844l6-16 7-12 9-10 13-9 11-5z" fill="#2A2E84"/>
<path transform="translate(379,238)" d="m0 0h357l83 1v119l-1 1h-101l-14 2-10 4-9 6-8 8-8 16-2 16-1 15-1 1h-45l-15 2-10 5-5 5-5 8-2 5-1 6v10l4 16 7 14 8 10 8 7 14 8 13 4 8 1 22 1 1 2v32l-54 1-12 3-9 6-4 5-4 8-2 10v8l3 14 8 16 6 8 9 9 14 8 11 4 5 1 28 1 1 19v15l-2 1h-32l-23 1-10 3-8 6-5 6-4 10-1 5v10l4 17 8 15 11 12 14 9 13 5 9 2 24 1 1 1 2 25 5 15 10 13 10 7 8 4 10 2 23 1 1 5v45l-2 2h-668l-12-4-10-8-6-10-2-5-1-7-1-35v-504l1-110z" fill="#FBFBFB"/>
<path transform="translate(216,273)" d="m0 0h12l12 3 11 6 10 9 7 11 4 11 1 6v25l14-3h8l12 3 12 6 10 9 7 11 4 8 10-2h17l8 3v-15l1-31 4-13 6-10 7-8 11-7 11-4 6-1h9l11 2 10 4 11 8 8 10 6 13 1 5 1 179 20 1 7 3 6 8 1 9-4 8-5 4-5 2h-417l-8-5-4-7-1-8 3-7 7-6 5-1h19v-122l1-23 4-13 7-11 10-10 12-6 6-2 7-1h9l8 2h4l2-14 5-12 6-9 9-9 12-6z" fill="#292D83"/>
<path transform="translate(754,392)" d="m0 0h109l3 1v3l4 2 1 50v331l-1 53-1 3-12 1h-145l-9-3-3-12-1-47v-314l1-47 1-12 3-5 3-2 6-1z" fill="#3D50B6"/>
<path transform="translate(173,666)" d="m0 0h29l16 4 13 5 14 8 14 11 9 10 9 14 6 12 6 20 1 7v22l-4 18-6 16-9 15-12 13-7 7-15 10-17 7-15 4-7 1h-21l-20-4-15-6-16-10-12-11-8-9-9-14-5-11-5-16-2-13v-13l2-16 5-16 8-16 6-9 9-10 8-8 15-10 15-7 15-4z" fill="#292E84"/>
<path transform="translate(83,580)" d="m0 0h313l7 4 5 6 1 3v9l-4 6-6 5-3 1h-315l-8-5-4-7-1-7 3-7 5-5z" fill="#2A2E85"/>
<path transform="translate(796,700)" d="m0 0h9l14 3 13 7 11 11 6 10 3 7 1 5v15l-3 11-6 11-9 10-9 6-13 5-6 1h-14l-10-3-12-7-8-8-9-14-3-12v-12l2-11 6-12 9-10 8-6 10-5z" fill="#292D83"/>
<path transform="translate(793,564)" d="m0 0h19l11 4 10 6 7 6 8 11 4 12v25l-4 9-6 9-10 10-11 6-10 3h-16l-14-4-10-6-5-5-6-7-7-14-2-8v-14l4-13 7-11 4-5 11-8 12-5z" fill="#292D83"/>
<path transform="translate(791,428)" d="m0 0h21l12 4 9 6 7 6 9 13 4 12v18l-4 11-6 10-8 9-11 7-13 4h-20l-12-5-9-6-5-5-6-7-5-10-2-7v-21l4-11 6-10 9-9 10-6z" fill="#292D83"/>
<path transform="translate(527,682)" d="m0 0 8 1 7 5 4 8v8l-5 8-7 4-11 1h-181l-8-2-7-6-3-8 1-7 4-6 4-4 3-1z" fill="#2A2E85"/>
<path transform="translate(219,308)" d="m0 0 10 1 8 6 2 13v183l-33 1-2-1v-132l1-60 2-5 5-4z" fill="#DB1E62"/>
<path transform="translate(420,326)" d="m0 0h14l6 4 3 5 1 8v168l-3 1h-31l-1-1-1-8v-123l1-42 2-7 6-4z" fill="#F81016"/>
<path transform="translate(573,103)" d="m0 0h148l21 1 6 7 2 5v10l-8 8-2 1-27 1h-158l-6-2-1-4-1-3v-12l1-10 2-1z" fill="#3D50B6"/>
<path transform="translate(150,359)" d="m0 0h11l5 3 3 5 1 5 1 30v108l-3 2-28 1-4-2-1-59v-79l3-7 9-6z" fill="#F81015"/>
<path transform="translate(286,376)" d="m0 0h9l8 4 3 4 1 9v118l-2 1h-31l-2-3v-122l2-5 8-5z" fill="#F81015"/>
<path transform="translate(196,785)" d="m0 0h35l20 1 1 5-7 14-12 13-8 7-16 8-13 3h-16l-14-3-12-5-9-7-7-6-6-7v-3l37-13 17-5z" fill="#DB1E62"/>
<path transform="translate(786,239)" d="m0 0h33v119l-1 1-33-1-1-10v-54l1-53z" fill="#D3DBDD"/>
<path transform="translate(338,819)" d="m0 0h92l7 3 4 5 2 4v10l-5 8-5 3-5 1h-89l-8-3-5-6-2-8 2-8 6-7z" fill="#2A2F86"/>
<path transform="translate(439,751)" d="m0 0h95l5 3 5 6 2 4v7l-4 8-7 5-5 1h-89l-7-3-6-7-1-3v-9l5-8z" fill="#2A2F85"/>
<path transform="translate(353,411)" d="m0 0h13l5 3 4 7 1 24v66l-33 1-2-1v-86l2-10 5-3z" fill="#DC1E62"/>
<path transform="translate(700,868)" d="m0 0 10 1 23 1 1 5v45l-2 2h-668v-1l16-1h620l-1-8v-38z" fill="#D3DBDD"/>
<path transform="translate(165,704)" d="m0 0h5l1 1v36l-1 14-4 3-38 12-7 1-1-1v-14l4-11 8-16 8-10 8-7 12-7z" fill="#F71118"/>
<path transform="translate(337,751)" d="m0 0h43l7 4 5 8v9l-4 7-4 4-7 2h-37l-7-2-5-5-4-7 1-9 4-6 5-4z" fill="#2A2E85"/>
<path transform="translate(458,580)" d="m0 0h40l8 4 5 8 1 8-4 8-5 4-5 2-30 1-12-1-6-4-4-5-2-4v-8l3-6 7-6z" fill="#2A2E84"/>
<path transform="translate(631,800)" d="m0 0 9 1 24 1 1 1 2 25 5 15 3 4-1 6-15 1-11-4-8-6-7-11-2-7z" fill="#D3DBDD"/>
<path transform="translate(655,376)" d="m0 0h17l3 3-2 5-5 11-2 16-1 15-1 1h-35l2-1v-15l1-13 7-11 8-7z" fill="#D3DBDD"/>
<path transform="translate(631,527)" d="m0 0 34 2 1 2v32h-50v-1h16l-1-9v-19l1-5z" fill="#D3DBDD"/>
<path transform="translate(632,664)" d="m0 0 33 1 1 19v15l-2 1h-28l-4-1-1-9v-22z" fill="#D3DBDD"/>
<path transform="translate(797,598)" d="m0 0h10l7 3 5 8 1 8-3 7-8 7-4 1h-7l-8-4-5-8-1-9 3-6 7-6z" fill="#F81016"/>
<path transform="translate(251,103)" d="m0 0h9l7 2 5 7 1 3v9l-3 6-6 5-7 2-8-1-6-4-4-8v-10l3-6 5-4z" fill="#F81016"/>
<path transform="translate(797,461)" d="m0 0h10l9 6 4 7-1 10-8 9-3 2h-11l-8-5-3-4-1-3v-9l5-8 5-4z" fill="#DC1E62"/>
<path transform="translate(798,734)" d="m0 0h7l7 3 5 5 3 7-2 9-7 8-5 2h-9l-6-4-4-5-2-5v-8l6-8 4-3z" fill="#D3DBDD"/>
<path transform="translate(114,103)" d="m0 0h11l5 3 5 7 1 11-4 7-8 4-9 1-8-4-4-6-1-8 4-9 6-5z" fill="#DC1E62"/>
<path transform="translate(421,324)" d="m0 0h11l7 3 6 6 2 8 1 20v139l-1 9-3 2-1-168-2-10-5-5-2-1-14-1z" fill="#201E75"/>
<path transform="translate(207,307)" d="m0 0h20v2h-8l-9 3-3 3-1 4-1 60-1 132 13 2v1h-12l-3-3v-63l-1-22v-107l1-6 3-1v-3z" fill="#201E75"/>
<path transform="translate(286,375)" d="m0 0h10l7 3 5 4 1 3 1 12 1 26v50l1 9v16l-2 8-2 6-3-1h2l-1-118-1-9-5-5-5-2-9-1z" fill="#201E75"/>
<path transform="translate(165,361)" d="m0 0 3 1 2 6h2l1 7 1 43-1 27 1 51 1 5v2l-2 1-1 7-3 2-23 2h-7v-2l-4-1v-60h1l1 59 5 1 26-1 2-1v-108l-1-30-2-7z" fill="#201E75"/>
<path transform="translate(409,330)" d="m0 0 3 1-2 7-1 42v123l1 8 31 1v1l-15 2-14-1-5-2-1-9v-152l2-20z" fill="#201E75"/>
<path transform="translate(30,316)" d="m0 0h2v191l-1 7h-1l-1-92v-71z" fill="#201E75"/>
<path transform="translate(169,702)" d="m0 0 4 2 1 1v47l-3 5-10 5-9 3-16 4h-3v2l-5 2-8-1-1-1v-14h1l1 13 7-1 38-12 3-2 1-14v-36l-10 1-14 8-8 8-9 14h-1l1-7 3-3 4-7 5-4 6-5h2l1-2 7-4z" fill="#201E75"/>
<path transform="translate(352,684)" d="m0 0h160v1l-6 1h-59l-37 1h-45l-13-2z" fill="#201E75"/>
<path transform="translate(792,459)" d="m0 0 3 1 9-1 6 1v2l7 1 4 5 3 8-2 9-3 5-6 5-6 3h-9l-8-4-7-8-1-3v-8l1-1 1-7 3-5zm5 2-6 4-4 5-2 4v9l3 6 5 4 4 2h11l9-8 3-7v-6l-5-8-8-5z" fill="#201E75"/>
<path transform="translate(805,734)" d="m0 0 7 1 5 2 4 4v2h2v16l-4 5-7 5-6 2h-9l-9-5-5-8-2-7 1-6 2-4h3l-1-3 5-3h2l-2 4-5 7v8l4 8 5 4 2 1h9l6-3 5-6 2-9-3-7-5-5-6-2z" fill="#201E75"/>
<path transform="translate(820,249)" d="m0 0 2 4 2 16v62l-1 12-2 6h-1z" fill="#201E75"/>
<path transform="translate(271,387)" d="m0 0h1l1 123 1 1 31 1v1l-15 2h-14l-5-3-1-50v-54z" fill="#201E75"/>
<path transform="translate(451,297)" d="m0 0 6 3 7 6 7 10 5 11 1 7-4-1-2-9-4-3-3-5-9-11v-2h-2v-3h-2z" fill="#212178"/>
<path transform="translate(103,375)" d="m0 0h1l1 104 1 4 2 7-2 5h-2l-1 4z" fill="#201E75"/>
<path transform="translate(31,428)" d="m0 0h1v79l-1 7h-1l-1-79z" fill="#24247B"/>
<path transform="translate(312,347)" d="m0 0 5 2 8 6 7 8 6 12-1 3-3-5-3-1-1-3-10-10-6-7v-2h-2z" fill="#211F77"/>
<path transform="translate(406,294)" d="m0 0 3 1-4 1v2l-4 1-2 6-8 7-3 2-1 3h-2l-1 5-2 1-2-1 2-6 9-12 11-8z" fill="#22227A"/>
<path transform="translate(252,284)" d="m0 0 4 2 8 9 6 12 2 8h-2l-3-8-4-3v-3l-4-2-4-6v-2h-2z" fill="#212078"/>
<path transform="translate(195,784)" d="m0 0h38l20 1 3 2-2 6-3 1v-7l-20-1h-35l-10 2-4-1z" fill="#201E75"/>
<path transform="translate(341,580)" d="m0 0h55l7 4-1 3-6-4-55-2z" fill="#282B83"/>
<path transform="translate(129,330)" d="m0 0 3 1-5 4-8 7-5 6-5 10-2 5-2-1 1-6 7-12 11-11z" fill="#222279"/>
<path transform="translate(494,751)" d="m0 0h19v2l-7 1h-34l-4-2z" fill="#23237B"/>
<path transform="translate(813,600)" d="m0 0 5 2 6 11-1 4-2 2v3l-9 9-3-1 7-6 3-7-1-8z" fill="#201E75"/>
<path transform="translate(263,700)" d="m0 0h2l11 16 5 10-1 3-2-4-2-2-1-6-3 1-1-5v-2l-5-2v-3l-2-1 1-2h-2z" fill="#212078"/>
<path transform="translate(108,703)" d="m0 0 5 1-2 4h-3l-1 3-3 2-1 4h-3l2-6z" fill="#23247D"/>
<path transform="translate(83,512)" d="m0 0h16l1 2-10 1h-10z" fill="#23237C"/>
<path transform="translate(790,597)" d="m0 0 4 1v2l-7 6-2 5-1-4 2-6z" fill="#201F76"/>
<path transform="translate(114,345)" d="m0 0v3l-5 10-2 5-2-1 1-6 5-8z" fill="#23237B"/>
<path transform="translate(289,341)" d="m0 0 12 1 7 3v1h-6l-7-2-7-1z" fill="#222179"/>
<path transform="translate(180,836)" d="m0 0h16l-1 2-9 1-8-1z" fill="#201E75"/>
<path transform="translate(272,714)" d="m0 0h3l6 12-1 3-2-4-2-2-1-6-3 1-1-2z" fill="#222279"/>
<path transform="translate(333,684)" d="m0 0h9l-2 2-9 3-4 2z" fill="#222178"/>
<path transform="translate(821,619)" d="m0 0v3l-9 9-3-1 7-6z" fill="#211F76"/>
<path transform="translate(429,291)" d="m0 0h9l4 2v1h-10l-3-1z" fill="#212077"/>
</svg>
