<svg xmlns="http://www.w3.org/2000/svg" viewBox="0 0 64 64" id="seo-image">
    <defs>
        <linearGradient id="a" x1="32" x2="32" y1="3.064" y2="61.064" gradientUnits="userSpaceOnUse">
            <stop offset="0" stop-color="#d10303"></stop>
            <stop offset="1" stop-color="#2c2e83"></stop>
        </linearGradient>
    </defs>
    <path fill="url(#a)"
        d="M28,33H8c-2.757,0-5-2.243-5-5V12c0-.553.447-1,1-1s1,.447,1,1v16c0,1.654,1.346,3,3,3h20c1.654,0,3-1.346,3-3V8c0-1.654-1.346-3-3-3H8c-1.654,0-3,1.346-3,3,0,.553-.447,1-1,1s-1-.447-1-1c0-2.757,2.243-5,5-5h20c2.757,0,5,2.243,5,5v20c0,2.757-2.243,5-5,5ZM38,25c0-4.411,3.589-8,8-8s8,3.589,8,8-3.589,8-8,8-8-3.589-8-8ZM40,25c0,3.309,2.691,6,6,6s6-2.691,6-6-2.691-6-6-6-6,2.691-6,6ZM56,11h-20c-.553,0-1,.447-1,1s.447,1,1,1h20c1.654,0,3,1.346,3,3v28c0,.553.447,1,1,1s1-.447,1-1v-28c0-2.757-2.243-5-5-5ZM61,49.999s0,0,0,0v6c0,2.757-2.243,5-5,5H16c-2.757,0-5-2.243-5-5v-20c0-.553.447-1,1-1s1,.447,1,1v9.109l14.59-9.935c.406-.278.956-.218,1.294.144l9.878,10.583,9.565-7.68c.396-.32.97-.288,1.332.07l11.048,11s0,.001.001.002c.092.092.165.202.216.324.051.122.077.252.077.383ZM59,50.416l-10.119-10.076-8.752,7.027,7.602,8.145c.376.404.354,1.037-.049,1.414-.405.376-1.037.354-1.414-.049l-18.262-19.567-15.007,10.219v8.472c0,1.654,1.346,3,3,3h40c1.654,0,3-1.346,3-3v-5.584ZM26,18c0,1.846-.634,3.542-1.688,4.898l2.395,2.395c.391.391.391,1.023,0,1.414-.195.195-.451.293-.707.293s-.512-.098-.707-.293l-2.395-2.395c-1.355,1.054-3.052,1.688-4.898,1.688-4.411,0-8-3.589-8-8s3.589-8,8-8,8,3.589,8,8ZM24,18c0-3.309-2.691-6-6-6s-6,2.691-6,6,2.691,6,6,6,6-2.691,6-6Z"></path>
</svg>